<?xml version="1.0" encoding="utf-8"?>
<!-- Generator: Adobe Illustrator 25.0.1, SVG Export Plug-In . SVG Version: 6.00 Build 0)  -->
<svg version="1.1" id="Layer_1" xmlns="http://www.w3.org/2000/svg" xmlns:xlink="http://www.w3.org/1999/xlink" x="0px" y="0px"
	 viewBox="0 0 763 438" style="enable-background:new 0 0 763 438;" xml:space="preserve">
<style type="text/css">
	.st0{fill-rule:evenodd;clip-rule:evenodd;fill:#231F20;}
	.st1{fill:#FFFFFF;}
	.st2{fill:#231F20;}
	.st3{fill-rule:evenodd;clip-rule:evenodd;fill:#FFFFFF;}
	.st4{fill-rule:evenodd;clip-rule:evenodd;fill:#F48120;}
	.st5{fill:#F48120;}
</style>
<g>
	<path class="st0" d="M85.9,362.4c0.5-0.1,0.8-0.4,0.8-0.7c0-0.1,0-0.2,0-0.3c-0.1-0.5-0.3-1-0.5-1.5c-0.3-0.5-0.8-0.7-1.3-0.6
		c-1.2,0.1-1.9,0.3-2.3,0.6c-0.3,0.3-0.6,0.6-1.1,0.7c-1.9,0.3-3.1,0.4-3.5,0.4c-0.5-0.5-1-0.8-1.7-0.9c-0.2,0-0.6,0.4-1,1.2
		c-4,0.3-8.1,0.9-12,1.9c-3,0.7-4.5,1.9-4.3,3.4c0.1,0.8,0.2,1.6,0.5,2.4c0.6,1.2,1.3,2.3,2.2,3.3c0.1,0.2,0.4,0.4,0.6,0.4
		c0.2,0,0.5-0.1,0.5-0.4v-0.1c0-0.2-0.1-0.3-0.2-0.5c-0.9-1.5-1.4-2.7-1.4-3.4c0.1-0.8,0.6-1.6,1.3-2c0.8-0.6,2.4-1.2,4.8-1.7
		c2.2-0.4,4.4-0.8,6.6-0.9c-0.1,0.4-1,2.8-2.7,7.1c-1.4,3.8-2.4,6.4-2.8,7.6c-0.2,0-0.4-0.1-0.6-0.1s-0.3-0.1-0.5-0.1
		c-0.3,0-0.6,0.3-0.9,0.9c-0.7,1.6-1,3.3-1,5c0,1,0,1.4,0,1.2c0,0.3,0.2,0.4,0.5,0.5c0.6,0.2,1.2,0.3,1.8,0.4c0.5,0,0.8-0.5,1.1-1.4
		c0.7-2.9,1.8-6.6,3.4-11c1.1-3.6,2.5-7,4.2-10.4c2.7-0.2,5.3-0.5,7.8-0.8C85.4,362.5,85.9,362.4,85.9,362.4z"/>
	<path class="st0" d="M94.3,376c0.5-1.5,0.7-3.1,0.7-4.7c0-0.3-0.1-0.7-0.4-0.9c-0.4-0.1-0.7-0.2-1.1-0.2c-0.3-0.2-0.7-0.4-1.1-0.5
		c-0.3,0-0.7,0.3-1.1,0.8c-2.6,3.1-4.8,6.5-6.7,10.1c0.5-1.7,1.1-3.4,1.7-5.1c0.5-1.4,1.1-2.7,1.8-3.9c0.3-0.3,0.2-0.6-0.2-0.8
		c-0.5-0.3-1-0.4-1.6-0.5c-0.4,0-0.7,0.3-1.1,0.8c-1.2,1.5-2.2,2.7-2.8,3.4c-0.1,0.1-0.2,0.2-0.2,0.4c0,0.2,0.1,0.3,0.4,0.3
		c0.2,0,0.4-0.1,0.5-0.2c0.6-0.7,1.3-1.4,2-2c-1.5,3.6-2.7,7.3-3.6,11c-0.2,0.5,0,1,0.5,1.2l0,0c0.5,0.3,1.1,0.5,1.7,0.7
		c0.3,0,0.7-0.7,1.2-2c1.5-4.2,3.7-8.2,6.7-11.5c0.4-0.5,0.7-0.7,0.8-0.7c0.2,0,0.2,0.1,0.2,0.4c-0.1,1-0.3,1.9-0.6,2.8
		c-0.2,0.4-0.1,0.8,0.3,1.1c0.4,0.3,0.8,0.6,1.3,0.8C94,376.7,94.2,376.5,94.3,376z"/>
	<path class="st0" d="M108.5,370.7c-0.2,0-0.4,0.3-0.6,0.9c-0.1,0.3-0.4,0.9-0.7,1.7c-1,1.8-2.2,3.4-3.6,4.9
		c-1.6,1.9-3.3,3.6-5.2,5.2c-0.5,0.5-1.1,0.8-1.7,0.9c-0.3,0-0.4-0.2-0.4-0.5c0-0.1,0-0.2,0-0.2c0.4-2,1.5-4.3,3.4-6.8
		c1.2-1.8,2.7-3.3,4.5-4.6c0.8-0.4,1.7-0.4,2.5,0c0.1,0,0.2,0.1,0.3,0.1c0.3,0,0.5-0.1,0.5-0.3c0-0.1-0.1-0.2-0.2-0.3
		c-1.4-1.2-2.4-1.8-3-1.8c-0.7,0.1-1.3,0.3-1.8,0.8c-2.2,1.8-4.1,3.9-5.6,6.3c-1.4,2-2.3,4.2-2.8,6.5c0,0.2,0,0.3,0,0.5
		c0,0.7,0.5,1.4,1.1,1.7c0.3,0.3,0.7,0.5,1.2,0.6c0.5-0.1,1-0.3,1.4-0.6c1.5-1.1,2.8-2.3,4.1-3.6c1.9-1.8,3.6-3.8,5.1-5.9
		c-1,2.6-1.8,5.3-2.3,8c-0.1,0.3-0.1,0.6,0,0.8c0.1,0.2,0.3,0.3,0.7,0.6c0.4,0.3,0.9,0.5,1.4,0.6c0.3,0,0.5-0.3,0.6-0.8
		c0.5-1.9,1.4-3.8,2.7-5.3c0.1-0.1,0.2-0.3,0.2-0.4c0-0.2-0.1-0.3-0.3-0.3c-0.3,0-0.5,0.1-0.6,0.3c-0.2,0.2-0.5,0.4-0.7,0.6
		c-0.4,0.4-0.6,0.6-0.8,0.8c0.7-2.8,1.6-5.5,2.7-8.1c0.1-0.2,0.2-0.5,0.2-0.8c0-0.2-0.2-0.4-0.5-0.6
		C109.6,371.2,109,370.9,108.5,370.7z"/>
	<path class="st0" d="M128.9,378.5c0-0.2-0.1-0.4-0.3-0.4c-0.1,0-0.3,0.1-0.3,0.2c-0.6,0.8-1.2,1.4-1.6,1.8c0.4-1.2,0.8-2.5,1.1-3.8
		c0.4-1.4,0.6-2.8,0.7-4.3c0-0.8-0.6-1.4-1.8-1.8c-0.3-0.2-0.6-0.4-0.9-0.4s-0.6,0.1-0.9,0.3c-0.9,0.4-2.3,1.6-4.1,3.6
		c-1.6,1.7-3,3.5-4.2,5.5c1.4-3.6,2.3-6.1,2.4-7.5c0.1-0.6-0.5-1.1-1.6-1.4c-0.2-0.4-0.5-0.6-0.9-0.7c-0.3,0-0.5,0.1-0.7,0.3
		c-1,1-1.8,1.9-2.4,2.6c-0.1,0.1-0.2,0.2-0.2,0.3c0,0.1,0.1,0.2,0.3,0.2c0.2,0,0.3-0.1,0.4-0.2c0.7-0.5,1.2-1,1.6-1.3
		s0.6-0.5,0.6-0.5s0.1,0.2,0,0.7c-0.3,2.1-0.7,4.2-1.5,6.2c-0.7,2.1-1.5,4.1-2.5,6.1c-0.1,0.2-0.2,0.3-0.2,0.5
		c0,0.1,0.2,0.2,0.5,0.3c0.5,0.2,1,0.4,1.5,0.5c0.5,0,0.8-0.3,1.2-1c2.3-4.7,5.5-9,9.4-12.5c0.2-0.2,0.5-0.4,0.8-0.5
		c0.3,0,0.4,0.3,0.4,0.8c0.1,1.4-0.2,3.4-1,6c-0.6,2.2-1.4,4.3-2.5,6.2c-0.1,0.2-0.2,0.4-0.3,0.6c0,0.2,0.3,0.4,0.8,0.6
		c0.4,0.2,0.8,0.3,1.1,0.3c0.4,0,0.7-0.3,0.8-0.6c0.2-0.6,0.5-1.1,0.7-1.7c1.4-2.2,2.5-3.9,3.4-5
		C128.9,378.7,128.9,378.6,128.9,378.5z"/>
	<path class="st0" d="M137.7,370.2c-3.2,0.6-4.9,1.7-5,3.3c-0.1,0.7,0.4,2,1.2,3.9c0.9,2,1.4,3.4,1.4,4.2c0,0.4-0.1,0.8-0.3,1.1
		c-0.3,0.6-0.9,1-1.6,1.1c-2,0.3-3.5,0.4-4.5,0.5c-0.7,0.1-1.1,0.3-1.2,0.6c0.1,0.3,0.3,0.5,0.6,0.5l3.1,0.4
		c0.4,0.1,0.9,0.1,1.3,0.1c0.5,0,1-0.2,1.4-0.5c0.3-0.3,0.6-0.7,0.7-1.1c2-0.6,2.9-1.6,2.9-3.1c-0.1-1.1-0.4-2.2-0.8-3.2
		c-0.7-1.9-1.2-3.2-1.3-3.7c-0.1-0.4-0.2-0.8-0.2-1.3c0-0.9,0.8-1.6,2.3-2.2c0.2-0.1,0.3-0.2,0.3-0.4
		C138.2,370.2,138,370.1,137.7,370.2z"/>
	<path class="st0" d="M140.3,373.9c0.2-0.2,0.4-0.5,0.4-0.8c0.3-0.9,0.5-1.8,0.5-2.7c0-0.5-0.2-0.8-0.7-0.8
		c-0.5,0.1-0.9,0.2-1.4,0.5c-0.4,0.1-0.6,0.4-0.5,0.9c0,0.9-0.1,1.8-0.4,2.6c0,0.2-0.1,0.4-0.1,0.5c0,0.3,0.1,0.4,0.3,0.4
		c0.3,0,0.7-0.1,1-0.3C139.8,374.1,140.1,374,140.3,373.9z"/>
	<path class="st0" d="M153.9,371c0-0.2-0.2-0.3-0.5-0.3c-0.6,0-2.1-0.2-4.4-0.5c3.1-7.7,5.4-11.9,6.8-12.7c0.4-0.2,0.8-0.3,1.3-0.3
		c0.8,0,1.5,0.2,2.2,0.6c0.1,0.1,0.3,0.1,0.5,0.1c0.4,0,0.5-0.1,0.5-0.4s-0.1-0.3-0.3-0.5c-2.2-1.4-3.8-2.1-4.7-2.1
		c-1,0-2,0.9-3.1,2.7c-1.3,2.2-3.1,6.2-5.5,12.1c-0.1,0.3-0.5,0.5-1.1,0.6c-0.7,0.1-1.3,0.3-2,0.4c-0.5,0.1-0.7,0.2-0.7,0.4
		c0.1,0.2,0.1,0.4,0.2,0.6c0.1,0.2,0.4,0.4,0.6,0.4c0.2,0,0.9,0,2-0.1c-2.6,6.8-4.7,13.8-6.4,20.9c-0.1,0.7,0.3,1.3,1.2,1.7
		c0.5,0.3,1,0.5,1.5,0.6c0.2,0,0.2-0.1,0.2-0.3c0-0.2,0-0.4-0.1-0.6c0-0.2-0.1-0.4-0.1-0.6c0.2-2.6,0.6-5.1,1.3-7.6
		c1.3-4.8,2.8-9.6,4.6-14.3c1.7-0.1,3.4-0.2,5.1-0.5C153.7,371.4,153.9,371.2,153.9,371z"/>
	<path class="st0" d="M163.9,370.2c-0.4,0-0.7,0.1-1.1,0.2c-0.9,0.3-1.6,0.6-1.9,0.7c-1.1-0.9-1.9-1.3-2.4-1.3
		c-0.5,0.1-1,0.4-1.4,0.8c-1.5,1.6-2.6,3.6-3.4,5.7c-0.8,1.8-1.4,3.7-1.6,5.6c-0.1,1.1,0.4,2.2,1.3,2.8c1,0.7,2.1,1.1,3.3,1.1
		c0.5,0.1,1.1,0.2,1.7,0.3c1.1,0,2.2-0.5,3-1.3c1.9-1.9,3.2-4.3,4-6.8c0.5-1.4,0.8-2.9,0.9-4.5c0-0.7-0.2-1.4-0.6-1.9
		C165.1,370.7,164.4,370.2,163.9,370.2z M163.9,374.1c-0.3,2.1-0.9,4.2-1.9,6.1c-1,2.2-2.2,3.6-3.4,4.3c-0.5,0.3-1.1,0.5-1.8,0.6
		c-1.4,0.1-2-0.9-2-2.9c0-0.7,0.1-1.3,0.2-1.9c0.3-1.2,0.7-2.4,1.2-3.6c0.6-1.4,1.3-2.7,2.3-3.9c0.1,0.2,0.2,0.4,0.3,0.4
		c0.2-0.1,0.5-0.1,0.7-0.2l3.3-1.2c0.2,0,0.4-0.1,0.6-0.1c0.4,0,0.6,0.3,0.6,0.8C164.1,372.7,164,373.2,163.9,374.1L163.9,374.1z"/>
	<path class="st0" d="M181.2,370.4c-0.4-0.1-0.7-0.2-1.1-0.2c-0.3-0.2-0.7-0.4-1.1-0.5c-0.3,0-0.7,0.3-1.1,0.8
		c-2.6,3.1-4.8,6.5-6.7,10.1c0.5-1.7,1.1-3.4,1.7-5.1c0.5-1.4,1.1-2.7,1.8-3.9c0.3-0.3,0.2-0.6-0.2-0.8c-0.5-0.3-1-0.4-1.6-0.5
		c-0.4,0-0.7,0.3-1.1,0.8c-1.2,1.5-2.1,2.7-2.8,3.4c-0.1,0.1-0.2,0.2-0.2,0.4c0,0.2,0.1,0.3,0.4,0.3c0.2,0,0.4-0.1,0.5-0.2
		c0.6-0.7,1.3-1.4,2-2c-1.5,3.6-2.7,7.3-3.7,11.1c-0.2,0.5,0,1,0.5,1.3l0,0c0.5,0.3,1.1,0.5,1.7,0.7c0.3,0,0.7-0.7,1.2-2
		c1.5-4.2,3.7-8.2,6.7-11.5c0.4-0.5,0.7-0.7,0.8-0.7s0.2,0.1,0.2,0.4c-0.1,1-0.3,1.9-0.6,2.8c-0.2,0.4-0.1,0.8,0.3,1.1
		c0.4,0.3,0.8,0.6,1.3,0.8c0.3,0,0.5-0.2,0.6-0.7c0.5-1.5,0.8-3.1,0.8-4.7C181.6,370.9,181.4,370.6,181.2,370.4z"/>
	<path class="st0" d="M207.1,379.1c-0.5,0.7-1.1,1.3-1.7,1.9c1.3-2.8,2.1-5.8,2.2-8.8c0.1-0.9-0.5-1.7-1.3-1.8c-0.1,0-0.2,0-0.3,0
		c-0.4-0.4-1-0.7-1.6-0.8c-0.4,0-0.7,0.1-0.9,0.4c-2.9,2.6-5.5,5.5-7.6,8.7c0.7-2.2,1.1-4.5,1-6.9c0-0.4-0.1-0.8-0.3-1.1
		c-0.4-0.3-0.7-0.5-1.2-0.6c-0.4-0.3-0.9-0.5-1.4-0.5c-0.3,0-0.6,0.1-0.9,0.4c-2.2,1.7-4.5,4.6-7.1,8.6c0.8-2.2,1.3-4.5,1.7-6.8
		c0-0.1,0-0.2,0-0.3c0-0.3-0.2-0.6-0.4-0.7l-1.1-0.3c-0.5-0.4-0.8-0.6-0.9-0.6c-0.2,0-0.5,0.2-0.8,0.5c-0.7,0.9-1.5,1.8-2.4,2.6
		c-0.2,0.1-0.2,0.3-0.2,0.5c0,0.3,0.1,0.4,0.3,0.4s0.4-0.1,0.5-0.3l1.2-1c0.5-0.4,0.9-0.7,1.1-0.9c0.1,1.4-0.3,3.6-1.1,6.7
		c-0.5,2-1.1,3.9-2,5.7c-0.3,0.3-0.5,0.5-0.5,0.6s0.1,0.3,0.3,0.4c0.5,0.4,1.1,0.7,1.8,0.8c0.2,0,0.5-0.3,0.7-0.9
		c1.1-2.6,2.4-5.1,4.1-7.5c1.4-2.2,3.1-4.2,5.1-5.9c0.2-0.2,0.5-0.3,0.7-0.3c0.3,0,0.4,0.2,0.4,0.6c-0.1,4.2-1,8.3-2.8,12
		c-0.1,0.2-0.2,0.5-0.3,0.7c0,0.2,0.1,0.3,0.3,0.4c0.4,0.3,0.9,0.5,1.4,0.6c0.2,0.1,0.4,0.1,0.6,0.1c0.1,0,0.2-0.2,0.3-0.5
		c1.2-3.1,2.9-5.9,4.9-8.5c1.3-1.9,2.9-3.6,4.7-5c0.2-0.2,0.5-0.3,0.9-0.4c0.4,0,0.5,0.2,0.5,0.7c-0.1,2-0.5,3.9-1.1,5.7
		c-0.7,2.4-1.7,4.8-2.8,7.1c-0.1,0.2-0.2,0.4-0.2,0.6s0.5,0.5,1.5,0.8c0.3,0.1,0.6,0.1,0.9,0.1c0.1-0.1,0.2-0.3,0.3-0.4
		c1.9-3.1,3.2-5.2,4.2-6.5c0.1-0.1,0.2-0.3,0.2-0.5s-0.1-0.3-0.3-0.3c0,0,0,0-0.1,0C207.5,378.7,207.3,378.9,207.1,379.1z"/>
	<path class="st0" d="M214.7,370.6c-0.3-0.2-0.6-0.4-1-0.4c-0.3,0-0.5,0.1-0.7,0.3c-0.8,0.7-1.5,1.5-2.2,2.4
		c-0.1,0.1-0.2,0.2-0.2,0.4c0,0.3,0.2,0.3,0.7-0.1l1.3-1.1c0.2-0.2,0.4-0.3,0.7-0.4c0.2,0,0.2,0.3,0.2,0.9c-0.3,2.1-0.8,4.1-1.5,6.1
		c-0.6,2.1-1.5,4.1-2.6,6c-0.1,0.1-0.2,0.3-0.2,0.5c0,0.1,0.2,0.2,0.6,0.4c0.4,0.2,0.9,0.4,1.4,0.4c0.3,0,0.6-0.1,0.7-0.4
		c0.5-1.1,1.2-2.2,1.9-3.2c1.1-1.6,1.7-2.5,1.8-2.6c0.2-0.4,0.2-0.5-0.1-0.5c-0.1,0-0.2,0.1-0.3,0.2c-0.5,0.7-1.1,1.3-1.7,1.8
		c1.1-2.8,2-5.6,2.7-8.5c0.1-0.3,0.1-0.5,0.1-0.8c0-0.4-0.2-0.8-0.5-1C215.5,370.7,215.1,370.6,214.7,370.6z"/>
	<path class="st0" d="M219.6,364.8c0-0.2-0.1-0.4-0.3-0.5c-0.5-0.4-1.1-0.7-1.7-0.8c-0.2,0-0.4,0.2-0.7,0.5
		c-0.8,0.8-1.7,1.5-2.6,2.2c-0.1,0-0.2,0-0.3,0c0,0.1,0,0.1,0,0.2c0.1,0.1,0.1,0.2,0.2,0.2c0.3,0.2,0.7,0.4,1.1,0.4
		c0.8,0.1,1.7-0.1,2.4-0.5C219,365.8,219.6,365.2,219.6,364.8z"/>
	<path class="st0" d="M230.5,372c0.2-0.2,0.5-0.4,0.8-0.5c0.3,0,0.4,0.3,0.4,0.8c0,2-0.3,4.1-1,6c-0.6,2.2-1.4,4.3-2.5,6.2
		c-0.1,0.2-0.2,0.4-0.3,0.6c0,0.2,0.3,0.4,0.8,0.6c0.4,0.2,0.8,0.3,1.1,0.3c0.4,0,0.7-0.3,0.8-0.6c0.2-0.6,0.5-1.1,0.8-1.7
		c1.4-2.2,2.5-3.9,3.4-5c0-0.1,0-0.2,0-0.2c0-0.2-0.1-0.4-0.3-0.4c-0.1,0-0.3,0.1-0.3,0.2c-0.6,0.8-1.2,1.4-1.6,1.8
		c0.4-1.2,0.8-2.5,1.1-3.8c0.4-1.4,0.6-2.8,0.7-4.3c0-0.8-0.6-1.4-1.8-1.8c-0.3-0.2-0.6-0.4-0.9-0.4c-0.3,0-0.7,0.1-1,0.3
		c-0.9,0.4-2.3,1.6-4.1,3.6c-1.6,1.7-3,3.5-4.2,5.5c1.5-3.6,2.3-6.1,2.4-7.5c0.1-0.6-0.5-1.1-1.6-1.4c-0.2-0.4-0.5-0.6-0.9-0.7
		c-0.3,0-0.5,0.1-0.7,0.3c-1,1-1.8,1.9-2.4,2.6c-0.1,0.1-0.2,0.2-0.2,0.3c0,0.1,0.1,0.2,0.3,0.2s0.3-0.1,0.4-0.2
		c0.7-0.5,1.2-1,1.6-1.3c0.4-0.3,0.6-0.5,0.6-0.5s0.1,0.2,0.1,0.7c-0.3,2.1-0.8,4.2-1.5,6.2c-0.7,2.1-1.5,4.1-2.5,6.1
		c-0.1,0.2-0.2,0.3-0.2,0.5c0,0.1,0.2,0.2,0.5,0.3c0.5,0.2,1,0.4,1.6,0.5c0.5,0,0.8-0.3,1.2-1C223.4,379.7,226.6,375.5,230.5,372z"
		/>
	<path class="st0" d="M250.2,369.6c-0.3,0-0.4,0.2-0.4,0.7c0,0.7-0.1,1.3-0.4,1.9c-0.8,2.2-2,4.3-3.3,6.2c-1.4,2.1-3.1,4-5.1,5.5
		c-0.3,0.3-0.8,0.5-1.2,0.5c-0.6,0-0.9-0.5-0.9-1.4c0-0.4,0-0.8,0.1-1.2c0.4-2,1.2-3.8,2.3-5.5c0.9-1.5,2-2.8,3.3-3.9
		c0.5-0.4,1-0.6,1.6-0.6c0.4,0,0.9,0.1,1.3,0.3c0.2,0.1,0.5,0.2,0.7,0.2c0.4,0,0.5-0.1,0.5-0.3c0-0.2-0.1-0.4-0.3-0.5
		c-1.1-0.8-1.6-1.3-1.7-1.3c-0.5-0.3-1-0.5-1.6-0.6c-0.8,0.1-1.6,0.4-2.2,1c-1.7,1.5-3.1,3.4-4.2,5.4c-1.4,2.5-2.1,4.5-2.2,6.2
		c-0.1,1.3,0.7,2.5,2,2.9c0.6,0.4,1.2,0.7,1.9,0.8c0.7-0.1,1.4-0.4,1.9-1c1.8-1.6,3.9-4.2,6.3-7.8c-4,15.3-8.9,22.9-14.8,22.9
		c-1.9,0-4-0.9-6.3-2.6c-0.2-0.1-0.4-0.2-0.6-0.2c-0.4,0-0.6,0.2-0.6,0.6c0,0.3,0.2,0.6,0.4,0.7c3,2.5,5.7,3.7,8.3,3.7
		c7.1,0,12.8-10.1,17.2-30.2c0.2-0.8,0-1.4-0.4-1.7C251.3,370.1,250.8,369.8,250.2,369.6z"/>
	<path class="st0" d="M287,364.7c0.6,0.2,1.3,0.2,1.9-0.1l0.8-0.6c0.2-0.2,0.3-0.4,0.3-0.7c0-0.4-0.1-0.8-0.2-1.2
		c-0.1-0.4-0.3-0.6-0.6-0.6c-0.2,0-0.4,0.1-0.5,0.3c-0.3,0.5-0.9,0.8-1.6,0.6c-5.1-1-7.9-1.6-8.5-1.7c0.1-0.2,0.2-0.4,0.2-0.7
		c0-0.2-0.1-0.3-0.3-0.3c-0.6,0.1-1.1,0.4-1.6,0.7c-2.3-0.4-4.6-0.7-6.9-0.8c-2.1,0-3.3,0.6-3.7,1.7c-0.3,0.8-0.4,1.6-0.4,2.4
		c0.1,1.5,0.4,3,0.9,4.4c0.1,0.3,0.3,0.5,0.6,0.5c0.4,0,0.5-0.2,0.4-0.7c-0.3-0.9-0.4-1.8-0.5-2.8c0-1.7,0.8-2.6,2.4-2.8
		c0.7-0.1,1.3-0.1,2-0.1c1.5,0.1,3.1,0.2,4.6,0.5c-1,3.5-1.8,6.3-2.5,8.5c-0.3,0.1-0.5,0.1-0.7,0.2c-1.1,0.2-1.7,0.6-1.7,1.1
		c0,0.3,0.2,0.7,0.3,1c0.4,0.7,0.6,1.1,0.7,1.4c-0.9,2.5-2.1,5-3.5,7.3c-1.3,0-2.5,0.1-3.7,0.3c-0.6,0.2-0.9,0.5-0.9,1
		c0,0.1,0.1,0.8,0.4,2c0.1,0.3,0.2,0.5,0.5,0.5s1.1-0.5,2.3-1.4c1.8-0.1,3.5-0.2,5-0.2c3.5,0,7,0.3,10.4,1.1
		c0.8,0.2,1.2,0.3,1.2,0.3c0.3,0,0.6-0.1,0.8-0.3c0.3-0.2,0.6-0.4,0.9-0.6s0.5-0.5,0.4-0.8c-0.2-0.9-0.4-1.6-0.6-2.2
		c-0.1-0.3-0.4-0.5-0.7-0.4c-0.2,0-0.3,0.2-0.4,0.7c0,0.4-0.4,0.6-0.7,0.6h-0.1c-5.5-0.4-9.4-0.6-11.8-0.6c-0.6,0-1.1,0-1.6,0
		c0.7-0.4,1.3-0.9,1.8-1.5c0.6-0.8,1-1.7,1.3-2.7l1.7-4.7c2-0.2,3.9-0.2,5.9-0.2c0.5-0.1,0.9,0.2,1.2,0.6c0.2,0.3,0.9,0.4,2.1,0.2
		s1.7-0.5,1.7-0.9c0-0.1,0-0.2,0-0.3c-0.1-0.4-0.2-0.9-0.4-1.3c-0.4-0.5-1-0.8-1.6-0.7c-3.8,0.2-6.5,0.3-8.1,0.4
		c0.5-1.8,1.2-4.4,2.2-7.9C281.3,363.6,284.3,364.1,287,364.7z"/>
	<path class="st0" d="M303.1,379.8c-0.6,0.7-1.1,1.2-1.5,1.5c1.8-9.4,4.7-17,8.6-22.7c1.1-1.5,2.1-2.3,3-2.3c0.5,0.1,1,0.2,1.5,0.4
		c0.1,0.1,0.3,0.1,0.4,0.1c0.3,0,0.5-0.1,0.5-0.4c0-0.2-0.1-0.3-0.3-0.4l-2.2-1.6c-0.4-0.3-1-0.6-1.6-0.6c-0.4,0-0.8,0.2-1.2,0.5
		c-1.1,0.9-2.4,2.6-3.8,5.2c-2.1,3.8-3.7,7.8-5,11.9c-0.2,0.6-0.4,1.2-0.7,1.7c-1,1.8-2.2,3.4-3.6,4.9c-1.6,1.8-3.3,3.6-5.2,5.2
		c-0.5,0.5-1.1,0.8-1.7,0.9c-0.4,0-0.5-0.2-0.4-0.7c0.3-2,1.4-4.3,3.3-6.8c1.2-1.8,2.7-3.3,4.5-4.6c0.8-0.4,1.7-0.4,2.5,0
		c0.1,0,0.2,0.1,0.3,0.1c0.3,0,0.5-0.1,0.5-0.3c0-0.1-0.1-0.3-0.2-0.3c-1.4-1.2-2.4-1.8-3-1.8c-0.7,0-1.3,0.3-1.8,0.8
		c-2.2,1.8-4,3.9-5.5,6.3c-1.4,2-2.4,4.2-2.9,6.6c0,0.1,0,0.3,0,0.4c0,0.7,0.5,1.3,1.4,1.8c0.3,0.3,0.8,0.5,1.2,0.6
		c0.5-0.1,1-0.3,1.4-0.6c1.4-1,2.7-2.1,3.9-3.4c1.7-1.7,3.3-3.5,4.8-5.3c-0.4,1.4-0.9,3.6-1.5,6.5c-0.1,0.2-0.1,0.5-0.1,0.8
		c0,0.4,0.1,0.7,0.4,1c0.4,0.3,0.8,0.5,1.2,0.8c0.1,0.1,0.3,0.2,0.5,0.2c0.3,0,0.5-0.2,0.6-0.7c0.5-2,1.4-3.9,2.7-5.4
		c0.3-0.4,0.3-0.6-0.1-0.6C303.8,379.2,303.5,379.4,303.1,379.8z"/>
	<path class="st0" d="M322.5,370.8c-0.4-0.2-0.8-0.3-1.2-0.4c-0.3,0-0.5,0.1-0.7,0.2c-0.4,0.2-0.9,1-1.6,2.3c-1,1.7-2.1,3.4-3.4,5
		c-1.4,2.1-3,4.1-4.8,5.9c-0.5,0.5-0.9,0.7-1.1,0.7s-0.4-0.3-0.4-0.8c0.1-2.2,0.6-4.4,1.3-6.4c0.5-1.8,1.3-3.5,2.3-5.1l0.5-0.6
		c0-0.1-0.1-0.2-0.3-0.3c-0.5-0.3-1.1-0.5-1.7-0.6c-0.3,0-0.6,0.2-0.8,0.4c-0.6,0.7-1.1,1.5-1.4,2.3c-0.4,0.7-0.9,1.4-1.4,2
		c-0.2,0.2-0.2,0.4-0.1,0.4c0.1,0.1,0.2,0,0.4-0.1l1.1-0.9c-1.3,2.9-2,5.9-2.2,9c0,0.1,0,0.3,0,0.5c0,0.8,0.5,1.2,1.5,1.4
		c0.4,0.3,0.9,0.4,1.4,0.4s1-0.2,1.4-0.6c2.6-2.7,4.9-5.7,7-8.8c-0.9,2.3-1.6,4.7-2.2,7.2c-0.2,0.5,0,1.1,0.5,1.5s1.1,0.6,1.7,0.7
		c0.3,0,0.5-0.3,0.7-0.9c0.5-1.5,1.1-2.9,1.8-4.3c0-0.1,0.1-0.2,0.1-0.2c0-0.2-0.1-0.4-0.3-0.4c-0.2,0-0.3,0.1-0.3,0.3
		c-0.6,1-1.1,1.7-1.4,2.4c0.8-3.9,2.3-7.6,4.3-11c0.1-0.1,0.1-0.2,0.2-0.2c0.1-0.1,0.2-0.1,0.2-0.2
		C323.3,371.3,323,371.1,322.5,370.8z"/>
	<path class="st0" d="M332.4,375.7c0,0.3,0.4,0.6,1.2,1c0.4,0.3,0.9,0.2,1.1-0.2c0,0,0.1-0.1,0.1-0.2c0.7-1.5,1-3.1,0.9-4.7
		c0-0.7-0.6-1.1-1.7-1.1c-0.6,0-1.2,0.1-1.7,0.3c-0.7-0.4-1.4-0.7-2.2-0.8c-0.5,0.1-1,0.4-1.4,0.8c-2.6,3.2-4.3,7.1-5,11.2
		c-0.1,1.1,0.3,2.1,1.2,2.8c0.9,0.7,2,1.1,3.2,1.1c0.5,0.1,1.1,0.2,1.7,0.3c0.6,0.1,1.1-0.1,1.6-0.5c1.2-1.3,2.3-2.7,3-4.3
		c0.1-0.1,0.1-0.2,0.1-0.4c0-0.2-0.1-0.3-0.3-0.3c-0.2,0-0.5,0.2-0.6,0.4c-2.4,2.7-4.1,4-5.4,4c-1.4,0-2.1-0.9-2.1-2.9
		c0-0.7,0.1-1.3,0.2-1.9c0.3-1.2,0.7-2.4,1.2-3.5c0.6-1.4,1.3-2.7,2.3-3.9c0.7-0.8,1.4-1.2,1.9-1.2c0.1,0,0.2,0,0.3,0
		c0.1,0,0.2,0,0.3,0.1c0.6,0,0.9,0.3,1,0.9c0,1-0.3,1.9-0.7,2.8C332.5,375.4,332.4,375.5,332.4,375.7z"/>
	<path class="st0" d="M350.2,370.7c-0.2,0-0.4,0.3-0.6,0.9c-0.1,0.3-0.4,0.9-0.7,1.7c-1,1.8-2.2,3.4-3.6,4.9
		c-1.6,1.9-3.3,3.6-5.2,5.2c-0.5,0.5-1.1,0.8-1.7,0.9c-0.3,0-0.4-0.2-0.4-0.5c0-0.1,0-0.2,0-0.2c0.4-2,1.5-4.3,3.4-6.8
		c1.2-1.8,2.7-3.3,4.5-4.6c0.8-0.4,1.7-0.4,2.5,0c0.1,0,0.2,0.1,0.3,0.1c0.3,0,0.5-0.1,0.5-0.3c0-0.1-0.1-0.3-0.2-0.3
		c-1.4-1.2-2.4-1.8-3-1.8c-0.7,0-1.3,0.3-1.8,0.8c-2.2,1.8-4,3.9-5.5,6.3c-1.4,2-2.3,4.2-2.8,6.5c0,0.2,0,0.3,0,0.5
		c0,0.7,0.5,1.4,1.1,1.7c0.3,0.3,0.7,0.5,1.2,0.6c0.5-0.1,1-0.3,1.4-0.6c1.5-1.1,2.8-2.3,4.1-3.6c1.9-1.8,3.6-3.8,5.1-5.9
		c-1,2.6-1.8,5.3-2.3,8c-0.1,0.3-0.1,0.6,0,0.8c0.1,0.2,0.3,0.3,0.7,0.6c0.4,0.3,0.9,0.5,1.4,0.6c0.3,0,0.5-0.3,0.6-0.8
		c0.5-1.9,1.4-3.8,2.7-5.3c0.1-0.1,0.2-0.3,0.2-0.4c0-0.2-0.1-0.3-0.3-0.3c-0.3,0-0.5,0.1-0.7,0.3c-0.2,0.2-0.4,0.4-0.7,0.6
		c-0.4,0.4-0.6,0.6-0.8,0.8c0.7-2.8,1.6-5.5,2.7-8.1c0.1-0.2,0.2-0.5,0.2-0.8c0-0.2-0.2-0.4-0.5-0.6
		C351.3,371.2,350.8,370.9,350.2,370.7z"/>
	<path class="st0" d="M361.2,381.7c-2,1.7-3.1,2.5-3.5,2.5c-0.2,0-0.4-0.2-0.4-0.6c0-0.1,0-0.3,0-0.4c0.6-3.9,1.7-7.7,3.2-11.3
		c2.9-0.2,4.5-0.3,4.8-0.3c0.4-0.1,0.6-0.2,0.6-0.5c0-0.4-0.2-0.6-0.7-0.6c-1.1,0.1-2.3,0.1-3.4,0.1c-0.3,0-0.5-0.1-0.6-0.2
		c0-0.1,0-0.2,0.1-0.5c1.2-3.1,2.2-5.2,2.9-6.1c0.8-1,1.4-1.6,2-1.6h0.3c0.1,0,0.2,0,0.3,0c0.3,0,0.4-0.1,0.4-0.2s-0.2-0.5-0.6-0.6
		c-0.7-0.4-1.6-0.7-2.4-0.8c-0.7,0.1-1.3,0.5-1.6,1.1c-0.9,1.2-2.1,3.9-3.6,8.1c-0.4,0.3-0.9,0.5-1.4,0.7c-0.8,0.2-1.3,0.4-1.6,0.4
		c-0.3,0-0.5,0.3-0.4,0.5c0,0.2,0.2,0.4,0.4,0.5l0,0l2.1,0.3c-1.3,3.9-2.4,7.9-3.1,12c0,0.1,0,0.2,0,0.3c0,0.6,0.4,1,1.2,1.1
		c0.4,0.3,0.9,0.6,1.4,0.7c0.4-0.1,0.9-0.3,1.2-0.6c1.2-1.1,2.4-2.2,3.4-3.4c0.1-0.1,0.2-0.3,0.2-0.5c-0.1-0.1-0.2-0.2-0.3-0.2
		C361.6,381.4,361.3,381.5,361.2,381.7z"/>
	<path class="st0" d="M369.1,370.6c-0.3-0.2-0.6-0.4-1-0.4c-0.3,0-0.5,0.1-0.7,0.3c-0.8,0.7-1.5,1.5-2.2,2.4
		c-0.1,0.1-0.2,0.2-0.2,0.4c0,0.3,0.2,0.3,0.7-0.1l1.3-1.1c0.2-0.2,0.4-0.3,0.7-0.4c0.2,0,0.2,0.3,0.2,0.9c-0.3,2.1-0.8,4.1-1.5,6.1
		c-0.6,2.1-1.5,4.1-2.6,6c-0.1,0.1-0.2,0.3-0.2,0.5c0,0.1,0.2,0.2,0.6,0.4c0.4,0.2,0.9,0.4,1.4,0.4c0.3,0,0.6-0.1,0.7-0.4
		c0.5-1.1,1.2-2.2,1.9-3.2c1.1-1.6,1.7-2.5,1.8-2.6c0.2-0.4,0.2-0.5-0.1-0.5c-0.1,0-0.2,0.1-0.3,0.2c-0.5,0.7-1.1,1.3-1.7,1.8
		c1.1-2.8,2-5.6,2.7-8.5c0.1-0.3,0.1-0.5,0.1-0.8c0-0.4-0.2-0.8-0.5-1C369.9,370.7,369.5,370.6,369.1,370.6z"/>
	<path class="st0" d="M374,364.8c0-0.2-0.2-0.4-0.4-0.5c-0.5-0.4-1.1-0.7-1.7-0.8c-0.2,0-0.4,0.2-0.7,0.5c-0.8,0.8-1.7,1.5-2.6,2.2
		c-0.1,0-0.2,0-0.3,0c0,0.1,0,0.1,0,0.2c0.1,0.1,0.1,0.2,0.2,0.2c0.3,0.2,0.7,0.4,1.1,0.4c0.8,0.1,1.7-0.1,2.4-0.5
		C373.4,365.8,374,365.2,374,364.8z"/>
	<path class="st0" d="M384.2,370.2c-0.4,0-0.7,0.1-1.1,0.2c-0.9,0.3-1.6,0.6-1.9,0.7c-1.1-0.9-1.9-1.3-2.4-1.3
		c-0.5,0.1-1,0.4-1.4,0.8c-1.5,1.6-2.6,3.6-3.4,5.7c-0.8,1.8-1.4,3.7-1.6,5.6c-0.1,1.1,0.4,2.2,1.3,2.8c1,0.7,2.1,1.1,3.3,1.1
		c0.5,0.1,1.1,0.2,1.7,0.3c1.1,0,2.2-0.5,3-1.3c1.9-1.9,3.2-4.3,4-6.8c0.5-1.4,0.8-2.9,0.9-4.5c0-0.7-0.2-1.4-0.6-1.9
		C385.4,370.7,384.8,370.2,384.2,370.2z M384.2,374.1c-0.3,2.1-0.9,4.2-1.9,6.1c-1,2.2-2.2,3.6-3.4,4.3c-0.5,0.3-1.1,0.5-1.8,0.6
		c-1.4,0.1-2-0.9-2-2.9c0-0.7,0.1-1.3,0.2-1.9c0.3-1.2,0.7-2.4,1.2-3.6c0.5-1.4,1.3-2.7,2.3-3.9c0.1,0.2,0.2,0.4,0.3,0.4
		c0.2-0.1,0.5-0.1,0.7-0.2l3.3-1.2c0.2,0,0.4-0.1,0.6-0.1c0.4,0,0.6,0.3,0.6,0.8C384.4,372.7,384.4,373.2,384.2,374.1L384.2,374.1z"
		/>
	<path class="st0" d="M404,378.4c-0.6,0.8-1.2,1.4-1.6,1.8c0.4-1.2,0.8-2.5,1.1-3.8c0.4-1.4,0.6-2.8,0.7-4.3c0-0.8-0.6-1.4-1.8-1.8
		c-0.3-0.2-0.6-0.4-0.9-0.4s-0.6,0.1-0.9,0.3c-0.9,0.4-2.3,1.6-4.1,3.6c-1.6,1.7-3,3.5-4.2,5.5c1.4-3.6,2.3-6.1,2.4-7.5
		c0.1-0.6-0.5-1.1-1.6-1.4c-0.2-0.4-0.5-0.6-0.9-0.7c-0.3,0-0.5,0.1-0.7,0.3c-1,1-1.8,1.9-2.4,2.6c-0.1,0.1-0.2,0.2-0.2,0.3
		c0,0.1,0.1,0.2,0.3,0.2c0.2,0,0.3-0.1,0.4-0.2c0.7-0.5,1.2-1,1.6-1.3s0.6-0.5,0.6-0.5s0.1,0.2,0,0.7c-0.3,2.1-0.8,4.2-1.5,6.2
		c-0.7,2.1-1.5,4.1-2.5,6.1c-0.1,0.2-0.2,0.3-0.2,0.5c0,0.1,0.2,0.2,0.5,0.3c0.5,0.3,1.1,0.4,1.6,0.5c0.4,0,0.8-0.3,1.2-1
		c2.3-4.7,5.5-9,9.4-12.5c0.2-0.2,0.5-0.4,0.8-0.5c0.3,0,0.4,0.3,0.4,0.8c0,2-0.3,4.1-1,6c-0.6,2.2-1.4,4.3-2.5,6.2
		c-0.1,0.2-0.2,0.4-0.3,0.6c0,0.2,0.3,0.4,0.8,0.6c0.4,0.2,0.8,0.3,1.1,0.3c0.4,0,0.7-0.3,0.8-0.6c0.2-0.6,0.5-1.1,0.8-1.7
		c1.4-2.2,2.5-3.9,3.4-5c0-0.1,0-0.2,0-0.2c0-0.2-0.1-0.4-0.3-0.4C404.2,378.2,404.1,378.2,404,378.4z"/>
	<path class="st0" d="M444.3,362.4c0.5-0.1,0.8-0.4,0.8-0.7c0-0.1,0-0.2,0-0.3c-0.1-0.5-0.3-1-0.5-1.5c-0.3-0.5-0.8-0.7-1.3-0.6
		c-1.2,0.1-1.9,0.3-2.3,0.6c-0.3,0.3-0.6,0.6-1.1,0.7c-1.9,0.3-3.1,0.4-3.5,0.4c-0.5-0.5-1-0.8-1.7-0.9c-0.2,0-0.6,0.4-1,1.2
		c-4,0.3-8.1,0.9-12,1.9c-3,0.7-4.5,1.9-4.3,3.4c0.1,0.8,0.2,1.6,0.5,2.4c0.6,1.2,1.3,2.3,2.2,3.3c0.1,0.2,0.4,0.4,0.6,0.4
		s0.5-0.1,0.5-0.4v-0.1c0-0.2-0.1-0.3-0.2-0.5c-0.9-1.5-1.4-2.7-1.4-3.4c0.1-0.8,0.6-1.6,1.3-2c0.7-0.6,2.4-1.2,4.8-1.7
		c2.2-0.4,4.4-0.8,6.6-0.9c-0.1,0.4-1,2.8-2.7,7.1c-1.4,3.8-2.4,6.4-2.8,7.6c-0.2,0-0.4-0.1-0.6-0.1s-0.3-0.1-0.5-0.1
		c-0.3,0-0.6,0.3-0.9,0.9c-0.7,1.6-1,3.3-1,5.1c0,1,0,1.4-0.1,1.2c0,0.3,0.2,0.4,0.5,0.5c0.6,0.2,1.2,0.4,1.8,0.4
		c0.5,0,0.8-0.5,1.1-1.4c0.7-2.9,1.8-6.6,3.4-11c1.1-3.6,2.5-7,4.2-10.4c2.7-0.2,5.3-0.5,7.8-0.8
		C443.8,362.5,444.3,362.4,444.3,362.4z"/>
	<path class="st0" d="M452.7,376c0.5-1.5,0.8-3.1,0.8-4.7c0-0.3-0.1-0.7-0.4-0.9c-0.4-0.1-0.7-0.2-1.1-0.2c-0.3-0.2-0.7-0.4-1.1-0.5
		c-0.3,0-0.7,0.3-1.1,0.8c-2.6,3.1-4.8,6.5-6.7,10.1c0.5-1.7,1.1-3.4,1.7-5.1c0.5-1.4,1.1-2.7,1.8-3.9c0.3-0.3,0.2-0.6-0.2-0.8
		c-0.5-0.3-1-0.4-1.6-0.5c-0.4,0-0.7,0.3-1.1,0.8c-1.2,1.5-2.1,2.7-2.8,3.4c-0.1,0.1-0.2,0.2-0.2,0.4c0,0.2,0.1,0.3,0.4,0.3
		c0.2,0,0.4-0.1,0.5-0.2c0.6-0.7,1.3-1.4,2-2c-1.5,3.6-2.7,7.3-3.7,11c-0.2,0.5,0,1,0.5,1.3l0,0c0.5,0.3,1.1,0.5,1.7,0.7
		c0.3,0,0.7-0.7,1.2-2c1.5-4.2,3.8-8.1,6.7-11.5c0.4-0.5,0.7-0.7,0.8-0.7c0.2,0,0.2,0.1,0.2,0.4c-0.1,1-0.3,1.9-0.6,2.8
		c-0.2,0.4-0.1,0.8,0.3,1.1c0.4,0.3,0.8,0.6,1.3,0.8C452.3,376.7,452.5,376.5,452.7,376z"/>
	<path class="st0" d="M468.4,371.5c-0.4-0.4-1-0.6-1.5-0.8c-0.2,0-0.4,0.3-0.6,0.9c-0.1,0.3-0.4,0.9-0.7,1.7c-1,1.8-2.2,3.4-3.6,4.9
		c-1.6,1.9-3.3,3.6-5.2,5.2c-0.5,0.5-1.1,0.8-1.7,0.9c-0.3,0-0.4-0.2-0.4-0.5c0-0.1,0-0.2,0-0.2c0.4-2,1.5-4.3,3.4-6.8
		c1.2-1.8,2.7-3.3,4.5-4.6c0.8-0.4,1.7-0.4,2.5,0c0.1,0,0.2,0.1,0.3,0.1c0.3,0,0.5-0.1,0.5-0.3c0-0.1-0.1-0.3-0.2-0.3
		c-1.4-1.2-2.4-1.8-3-1.8c-0.7,0.1-1.3,0.3-1.8,0.8c-2.2,1.8-4,3.9-5.5,6.3c-1.4,2-2.3,4.2-2.8,6.5c0,0.2,0,0.3,0,0.5
		c0,0.7,0.5,1.4,1.1,1.7c0.3,0.3,0.7,0.5,1.2,0.6c0.5-0.1,1-0.3,1.4-0.6c1.5-1.1,2.8-2.3,4.1-3.6c1.9-1.8,3.6-3.8,5.1-5.9
		c-1,2.6-1.8,5.3-2.3,8c-0.1,0.3-0.1,0.6,0,0.8c0.1,0.2,0.3,0.3,0.7,0.6c0.4,0.3,0.9,0.5,1.4,0.6c0.3,0,0.5-0.3,0.6-0.8
		c0.5-1.9,1.4-3.8,2.7-5.3c0.1-0.1,0.2-0.3,0.2-0.4c0-0.2-0.1-0.3-0.3-0.3c-0.3,0-0.5,0.1-0.6,0.3c-0.2,0.2-0.5,0.4-0.7,0.6
		c-0.4,0.4-0.6,0.6-0.9,0.8c0.7-2.8,1.6-5.5,2.7-8.1c0.1-0.2,0.2-0.5,0.2-0.8C468.9,371.9,468.7,371.7,468.4,371.5z"/>
	<path class="st0" d="M487.3,378.5c0-0.2-0.1-0.4-0.3-0.4c-0.1,0-0.3,0.1-0.4,0.2c-0.6,0.8-1.2,1.4-1.6,1.8c0.4-1.2,0.8-2.5,1.1-3.8
		c0.4-1.4,0.6-2.8,0.7-4.3c0-0.8-0.6-1.4-1.8-1.8c-0.3-0.2-0.6-0.4-0.9-0.4s-0.6,0.1-0.9,0.3c-0.9,0.4-2.3,1.6-4.1,3.6
		c-1.6,1.7-3,3.5-4.2,5.5c1.4-3.6,2.3-6.1,2.4-7.5c0.1-0.6-0.5-1.1-1.6-1.4c-0.2-0.4-0.5-0.6-0.9-0.7c-0.3,0-0.5,0.1-0.7,0.3
		c-1,1-1.8,1.9-2.4,2.6c-0.1,0.1-0.2,0.2-0.2,0.3c0,0.1,0.1,0.2,0.3,0.2c0.2,0,0.3-0.1,0.4-0.2c0.7-0.5,1.2-1,1.6-1.3
		s0.6-0.5,0.6-0.5s0.1,0.2,0.1,0.7c-0.3,2.1-0.8,4.2-1.5,6.2c-0.7,2.1-1.5,4.1-2.5,6.1c-0.1,0.2-0.2,0.3-0.2,0.5
		c0,0.1,0.2,0.2,0.5,0.3c0.5,0.2,1,0.4,1.6,0.5c0.4,0,0.8-0.3,1.2-1c2.3-4.7,5.5-9,9.4-12.5c0.2-0.2,0.5-0.4,0.8-0.5
		c0.3,0,0.4,0.3,0.4,0.8c0.1,1.4-0.2,3.4-1,6c-0.6,2.2-1.4,4.3-2.5,6.2c-0.1,0.2-0.2,0.4-0.3,0.6c0,0.2,0.3,0.4,0.8,0.6
		c0.4,0.2,0.7,0.3,1.1,0.3s0.7-0.3,0.8-0.6c0.2-0.6,0.5-1.1,0.7-1.7c1.4-2.2,2.5-3.9,3.4-5C487.2,378.7,487.3,378.6,487.3,378.5z"/>
	<path class="st0" d="M498.7,373.9c0.2-0.2,0.4-0.5,0.4-0.8c0.3-0.9,0.5-1.8,0.5-2.7c0-0.5-0.2-0.8-0.7-0.8
		c-0.5,0.1-0.9,0.2-1.4,0.5c-0.4,0.1-0.6,0.4-0.5,0.9c0,0.9-0.1,1.8-0.4,2.6c-0.1,0.2-0.1,0.4-0.1,0.5c0,0.3,0.1,0.4,0.3,0.4
		c0.3,0,0.7-0.1,1-0.3C498.2,374.1,498.5,374,498.7,373.9z"/>
	<path class="st0" d="M496,370.2c-3.2,0.6-4.9,1.7-5,3.3c-0.1,0.7,0.4,2,1.2,3.9c0.9,2,1.4,3.4,1.4,4.2c0,0.4-0.1,0.8-0.3,1.1
		c-0.3,0.6-0.9,1-1.6,1.1c-2,0.3-3.5,0.4-4.5,0.5c-0.7,0.1-1.1,0.3-1.2,0.6c0.1,0.3,0.3,0.5,0.6,0.5l3.1,0.4
		c0.4,0.1,0.9,0.1,1.3,0.1c0.5,0,1-0.2,1.4-0.5c0.3-0.3,0.6-0.7,0.7-1.1c2-0.6,2.9-1.6,2.9-3.1c-0.1-1.1-0.4-2.2-0.8-3.2
		c-0.7-1.9-1.2-3.2-1.3-3.7c-0.1-0.4-0.2-0.8-0.2-1.3c0-0.9,0.8-1.6,2.3-2.2c0.2-0.1,0.3-0.2,0.3-0.4
		C496.5,370.2,496.4,370.1,496,370.2z"/>
	<path class="st0" d="M512.2,371c0-0.2-0.2-0.3-0.5-0.3c-0.6,0-2.1-0.2-4.4-0.5c3.1-7.7,5.4-11.9,6.8-12.7c0.4-0.2,0.8-0.3,1.3-0.3
		c0.8,0,1.5,0.2,2.2,0.6c0.1,0.1,0.3,0.1,0.5,0.1c0.4,0,0.5-0.1,0.5-0.4s-0.1-0.3-0.3-0.5c-2.2-1.4-3.8-2.1-4.7-2.1
		c-1,0-2,0.9-3.1,2.7c-1.3,2.2-3.2,6.2-5.5,12.1c-0.1,0.3-0.5,0.5-1.1,0.6c-0.7,0.1-1.3,0.3-2,0.4c-0.5,0.1-0.7,0.2-0.7,0.4
		c0.1,0.2,0.1,0.4,0.2,0.6s0.4,0.4,0.6,0.4s0.9,0,2-0.1c-2.6,6.8-4.7,13.8-6.4,20.9c-0.1,0.7,0.3,1.3,1.2,1.7c0.5,0.3,1,0.5,1.5,0.6
		c0.2,0,0.2-0.1,0.2-0.3c0-0.2,0-0.4-0.1-0.6c0-0.2-0.1-0.4-0.1-0.6c0.2-2.6,0.6-5.1,1.3-7.6c1.3-4.8,2.8-9.6,4.6-14.3
		c1.7-0.1,3.4-0.2,5.1-0.5C512.1,371.4,512.2,371.2,512.2,371z"/>
	<path class="st0" d="M522.3,370.2c-0.4,0-0.7,0.1-1.1,0.2c-0.9,0.3-1.6,0.6-1.9,0.7c-1.1-0.9-1.9-1.3-2.4-1.3
		c-0.5,0.1-1,0.4-1.4,0.8c-1.5,1.6-2.6,3.6-3.4,5.7c-0.8,1.8-1.4,3.7-1.6,5.6c-0.1,1.1,0.4,2.2,1.3,2.8c1,0.7,2.1,1.1,3.3,1.1
		c0.5,0.1,1.1,0.2,1.7,0.3c1.1,0,2.2-0.5,3-1.3c1.9-1.9,3.2-4.3,4-6.8c0.5-1.4,0.8-2.9,0.9-4.5c0-0.7-0.2-1.4-0.6-1.9
		C523.4,370.7,522.8,370.2,522.3,370.2z M522.3,374.1c-0.3,2.1-0.9,4.2-1.9,6.1c-1,2.2-2.2,3.6-3.4,4.3c-0.5,0.3-1.1,0.5-1.8,0.6
		c-1.4,0.1-2-0.9-2-2.9c0-0.7,0.1-1.3,0.2-1.9c0.3-1.2,0.7-2.4,1.2-3.6c0.6-1.4,1.3-2.7,2.3-3.9c0.1,0.2,0.2,0.4,0.3,0.4
		c0.2-0.1,0.5-0.1,0.7-0.2l3.3-1.2c0.2,0,0.4-0.1,0.6-0.1c0.4,0,0.6,0.3,0.6,0.8C522.4,372.7,522.4,373.2,522.3,374.1L522.3,374.1z"
		/>
	<path class="st0" d="M539.5,370.4c-0.4-0.1-0.7-0.2-1.1-0.2c-0.3-0.2-0.7-0.4-1.1-0.5c-0.3,0-0.7,0.3-1.1,0.8
		c-2.6,3.1-4.8,6.5-6.7,10.1c0.5-1.7,1.1-3.4,1.7-5.1c0.5-1.4,1.1-2.7,1.8-3.9c0.3-0.3,0.2-0.6-0.2-0.8c-0.5-0.3-1-0.4-1.6-0.5
		c-0.4,0-0.7,0.3-1.1,0.8c-1.2,1.5-2.1,2.7-2.8,3.4c-0.1,0.1-0.2,0.2-0.2,0.4c0,0.2,0.1,0.3,0.4,0.3c0.2,0,0.4-0.1,0.5-0.2
		c0.6-0.7,1.3-1.4,2-2c-1.5,3.6-2.7,7.3-3.7,11.1c-0.2,0.5,0,1,0.5,1.3l0,0c0.5,0.3,1.1,0.5,1.7,0.7c0.3,0,0.7-0.7,1.2-2
		c1.5-4.2,3.7-8.2,6.7-11.5c0.4-0.5,0.7-0.7,0.8-0.7c0.2,0,0.2,0.1,0.2,0.4c-0.1,1-0.3,1.9-0.6,2.8c-0.2,0.4-0.1,0.8,0.3,1.1
		c0.4,0.3,0.8,0.6,1.3,0.8c0.3,0,0.5-0.2,0.6-0.7c0.5-1.5,0.8-3.1,0.8-4.7C539.9,370.9,539.8,370.6,539.5,370.4z"/>
	<path class="st0" d="M565.5,379.1c-0.5,0.7-1.1,1.3-1.7,1.9c1.3-2.8,2.1-5.8,2.2-8.8c0.1-0.9-0.5-1.7-1.3-1.8c-0.1,0-0.2,0-0.2,0
		c-0.4-0.4-1-0.7-1.6-0.8c-0.4,0-0.7,0.1-0.9,0.4c-2.9,2.6-5.5,5.5-7.6,8.7c0.7-2.2,1.1-4.5,1-6.9c0-0.4-0.1-0.8-0.3-1.1
		c-0.4-0.3-0.7-0.5-1.2-0.6c-0.4-0.3-0.9-0.5-1.4-0.5c-0.3,0-0.6,0.1-0.9,0.4c-2.2,1.7-4.6,4.6-7.1,8.6c0.8-2.2,1.3-4.5,1.7-6.8
		c0-0.1,0-0.2,0-0.3c0-0.3-0.2-0.6-0.4-0.7l-1.1-0.3c-0.5-0.4-0.8-0.6-0.9-0.6s-0.5,0.2-0.8,0.5c-0.7,0.9-1.5,1.8-2.4,2.6
		c-0.1,0.1-0.2,0.3-0.2,0.5c0,0.3,0.1,0.4,0.3,0.4s0.4-0.1,0.5-0.3l1.2-1c0.5-0.4,0.9-0.7,1.1-0.9c0.1,1.4-0.3,3.6-1.1,6.7
		c-0.5,2-1.1,3.9-2,5.7c-0.3,0.3-0.5,0.5-0.5,0.6s0.1,0.3,0.3,0.4c0.5,0.4,1.1,0.7,1.8,0.8c0.2,0,0.5-0.3,0.7-0.9
		c1.1-2.6,2.4-5.1,4.1-7.5c1.9-2.8,3.6-4.7,5.1-5.9c0.2-0.2,0.5-0.3,0.7-0.3c0.3,0,0.4,0.2,0.4,0.6c-0.1,4.2-1,8.3-2.8,12
		c-0.1,0.2-0.2,0.5-0.3,0.7c0,0.2,0.1,0.3,0.3,0.4c0.4,0.3,0.9,0.5,1.4,0.6c0.2,0.1,0.4,0.1,0.6,0.1c0.1,0,0.2-0.2,0.3-0.5
		c1.2-3.1,2.9-5.9,5-8.5c1.3-1.9,2.9-3.6,4.7-5.1c0.2-0.2,0.5-0.3,0.9-0.4c0.4,0,0.5,0.2,0.5,0.7c-0.1,2-0.5,3.9-1.1,5.7
		c-0.7,2.4-1.7,4.8-2.8,7.1c-0.1,0.2-0.2,0.4-0.2,0.6s0.5,0.5,1.5,0.8c0.3,0.1,0.6,0.1,0.9,0.1c0.1-0.1,0.2-0.3,0.3-0.4
		c1.9-3.1,3.2-5.2,4.2-6.5c0.1-0.1,0.2-0.3,0.2-0.5s-0.1-0.3-0.3-0.3c0,0,0,0-0.1,0C565.9,378.7,565.6,378.9,565.5,379.1z"/>
	<path class="st0" d="M573.1,370.6c-0.3-0.2-0.6-0.4-1-0.4c-0.3,0-0.5,0.1-0.7,0.3c-0.8,0.7-1.5,1.5-2.2,2.4
		c-0.1,0.1-0.2,0.2-0.2,0.4c0,0.3,0.2,0.3,0.7-0.1l1.3-1.1c0.2-0.2,0.4-0.3,0.7-0.4c0.2,0,0.2,0.3,0.2,0.9c-0.3,2.1-0.8,4.1-1.5,6.1
		c-0.6,2.1-1.5,4.1-2.6,6c-0.1,0.1-0.2,0.3-0.2,0.5c0,0.1,0.2,0.2,0.6,0.4c0.4,0.2,0.9,0.4,1.4,0.4c0.3,0,0.6-0.1,0.7-0.4
		c0.5-1.1,1.2-2.2,1.9-3.2c1.1-1.6,1.7-2.5,1.8-2.6c0.2-0.4,0.2-0.5-0.1-0.5c-0.1,0-0.2,0.1-0.3,0.2c-0.5,0.7-1.1,1.3-1.7,1.8
		c1.1-2.8,2-5.6,2.7-8.5c0.1-0.3,0.1-0.5,0.1-0.8c0-0.4-0.2-0.8-0.5-1C573.9,370.7,573.5,370.6,573.1,370.6z"/>
	<path class="st0" d="M578,364.8c0-0.2-0.1-0.4-0.3-0.5c-0.5-0.4-1.1-0.7-1.7-0.8c-0.2,0-0.4,0.2-0.7,0.5c-0.8,0.8-1.7,1.5-2.6,2.2
		c-0.1,0-0.2,0-0.3,0c0,0.1,0,0.1,0,0.2c0.1,0.1,0.1,0.2,0.2,0.2c0.3,0.2,0.7,0.4,1.1,0.4c0.8,0.1,1.7-0.1,2.4-0.5
		C577.4,365.8,578,365.2,578,364.8z"/>
	<path class="st0" d="M588.9,372c0.2-0.2,0.5-0.4,0.8-0.5c0.3,0,0.4,0.3,0.4,0.8c0.1,1.4-0.2,3.4-1,6c-0.6,2.2-1.4,4.3-2.5,6.2
		c-0.1,0.2-0.2,0.4-0.3,0.6c0,0.2,0.3,0.4,0.8,0.6c0.4,0.2,0.8,0.3,1.1,0.3c0.4,0,0.7-0.3,0.8-0.6c0.2-0.6,0.5-1.1,0.8-1.7
		c1.4-2.2,2.5-3.9,3.4-5c0-0.1,0-0.2,0-0.2c0-0.2-0.1-0.4-0.3-0.4c-0.1,0-0.3,0.1-0.4,0.2c-0.6,0.8-1.2,1.4-1.6,1.8
		c0.4-1.2,0.8-2.5,1.1-3.8c0.4-1.4,0.6-2.8,0.7-4.3c0-0.8-0.6-1.4-1.8-1.8c-0.3-0.2-0.6-0.4-0.9-0.4c-0.3,0-0.7,0.1-1,0.3
		c-0.9,0.4-2.3,1.6-4.1,3.6c-1.6,1.7-3,3.5-4.2,5.5c1.5-3.6,2.3-6.1,2.4-7.5c0.1-0.6-0.5-1.1-1.6-1.4c-0.2-0.4-0.5-0.6-0.9-0.7
		c-0.3,0-0.5,0.1-0.7,0.3c-1,1-1.8,1.9-2.4,2.6c-0.1,0.1-0.2,0.2-0.2,0.3c0,0.1,0.1,0.2,0.3,0.2s0.3-0.1,0.4-0.2
		c0.7-0.5,1.2-1,1.6-1.3c0.2-0.2,0.4-0.4,0.6-0.5c0.1,0,0.1,0.2,0,0.7c-0.3,2.1-0.8,4.2-1.5,6.2c-0.7,2.1-1.5,4.1-2.5,6.1
		c-0.1,0.2-0.2,0.3-0.2,0.5c0,0.1,0.2,0.2,0.5,0.3c0.5,0.2,1,0.4,1.6,0.5c0.4,0,0.8-0.3,1.2-1C581.8,379.7,585,375.5,588.9,372z"/>
	<path class="st0" d="M608.6,369.6c-0.3,0-0.4,0.2-0.4,0.7c0,0.7-0.1,1.3-0.4,1.9c-0.8,2.2-2,4.3-3.3,6.2c-1.4,2.1-3.1,4-5.1,5.6
		c-0.3,0.3-0.8,0.5-1.2,0.5c-0.6,0-0.9-0.5-0.9-1.4c0-0.4,0-0.8,0.1-1.2c0.4-2,1.2-3.8,2.3-5.5c0.9-1.5,2-2.8,3.3-3.9
		c0.5-0.4,1-0.6,1.6-0.6c0.4,0,0.9,0.1,1.3,0.3c0.2,0.1,0.5,0.2,0.7,0.2c0.4,0,0.5-0.1,0.5-0.3c0-0.2-0.1-0.4-0.3-0.5l-1.7-1.3
		c-0.5-0.3-1-0.5-1.6-0.6c-0.8,0.1-1.6,0.4-2.2,1c-1.7,1.5-3.1,3.4-4.2,5.4c-1.4,2.5-2.1,4.5-2.2,6.2c-0.1,1.3,0.7,2.5,2,2.9
		c0.6,0.4,1.2,0.7,1.9,0.8c0.7-0.1,1.4-0.4,1.9-1c1.8-1.6,3.9-4.2,6.3-7.8c-4,15.3-8.9,22.9-14.8,22.9c-1.9,0-4-0.9-6.3-2.6
		c-0.2-0.1-0.4-0.2-0.6-0.2c-0.4,0-0.6,0.2-0.6,0.6c0,0.3,0.2,0.6,0.4,0.7c3,2.5,5.7,3.7,8.3,3.7c7.1,0,12.8-10.1,17.2-30.2
		c0.2-0.8,0-1.4-0.4-1.7C609.7,370.1,609.2,369.8,608.6,369.6z"/>
	<path class="st0" d="M637.9,361.9c-1.6-0.9-2.7-1.4-3.3-1.4c-0.2,0-0.3,0-0.4,0.2c-1.6-0.4-2.7-0.5-3.2-0.3
		c-1.4,0.6-2.7,1.6-3.8,2.7c-1.4,1.3-2.5,2.8-3.3,4.5c-0.4,0.8-0.7,1.6-0.8,2.4c0,0.7,0.3,1.3,0.8,1.7c0.8,0.6,1.6,1.1,2.5,1.6
		c0.1,0.1,0.3,0.1,0.4,0.1c0.4,0,0.6-0.1,0.6-0.4c0-0.2-0.1-0.3-0.2-0.4l-1-0.9c-0.3-0.3-0.5-0.8-0.5-1.3c0-0.2,0.1-0.5,0.1-0.7
		c0.7-2.1,1.8-3.9,3.3-5.4c1.4-1.4,2.7-2.2,3.8-2.3c0.3,0,0.5-0.1,0.8-0.1c1.4,0,2.2,0.6,2.1,1.9c-0.2,3.9-1.3,8.2-3.5,13.1
		c-2.3,5-4.4,7.5-6.3,7.5c-1.1-0.1-2.2-0.4-3.2-0.9c-0.1,0-0.2-0.1-0.3-0.1c-0.5,0-0.7,0.2-0.7,0.7c0,0.2,0.1,0.3,0.2,0.4
		c2,1.4,3.8,2,5.2,2c2.4,0,4.8-2.7,7.3-8c1.9-3.9,3.3-8,4-12.3C638.8,363.7,638.6,362.3,637.9,361.9z"/>
	<path class="st0" d="M654.5,378.4c-0.6,0.8-1.2,1.4-1.6,1.8c0.4-1.2,0.8-2.5,1.1-3.8c0.4-1.4,0.6-2.8,0.7-4.3
		c0-0.8-0.6-1.4-1.8-1.8c-0.3-0.2-0.6-0.4-0.9-0.4c-0.3,0-0.6,0.1-0.9,0.3c-0.9,0.4-2.3,1.6-4.1,3.6c-1.6,1.7-3,3.5-4.2,5.5
		c1.5-3.6,2.3-6.1,2.4-7.5c0.1-0.6-0.5-1.1-1.6-1.4c-0.2-0.4-0.5-0.6-0.9-0.7c-0.3,0-0.5,0.1-0.7,0.3c-1,1-1.8,1.9-2.4,2.6
		c-0.1,0.1-0.2,0.2-0.2,0.3c0,0.1,0.1,0.2,0.3,0.2s0.3-0.1,0.4-0.2c0.7-0.5,1.2-1,1.6-1.3c0.4-0.3,0.6-0.5,0.6-0.5s0.1,0.2,0,0.7
		c-0.3,2.1-0.8,4.2-1.5,6.2c-0.7,2.1-1.5,4.1-2.5,6.1c-0.1,0.2-0.2,0.3-0.2,0.5c0,0.1,0.2,0.2,0.5,0.3c0.5,0.2,1,0.4,1.6,0.5
		c0.4,0,0.8-0.3,1.2-1c2.3-4.7,5.5-9,9.4-12.5c0.2-0.2,0.5-0.4,0.8-0.5c0.3,0,0.4,0.3,0.4,0.8c0,2-0.3,4.1-1,6
		c-0.6,2.2-1.4,4.3-2.5,6.2c-0.1,0.2-0.2,0.4-0.3,0.6c0,0.2,0.3,0.4,0.8,0.6c0.4,0.2,0.8,0.3,1.1,0.3c0.4,0,0.7-0.3,0.8-0.6
		c0.2-0.6,0.5-1.1,0.8-1.7c1.4-2.2,2.5-3.9,3.4-5c0-0.1,0-0.2,0-0.2c0-0.2-0.1-0.4-0.3-0.4C654.7,378.2,654.6,378.2,654.5,378.4z"/>
	<path class="st0" d="M671.7,379.8c-0.5,0.5-1,1-1.5,1.5c1.8-9.4,4.7-17,8.6-22.7c1.1-1.5,2.1-2.3,2.9-2.3c0.5,0.1,1,0.2,1.5,0.4
		c0.1,0.1,0.3,0.1,0.4,0.1c0.4,0,0.5-0.1,0.5-0.4c0-0.2-0.1-0.3-0.3-0.4l-2.2-1.6c-0.4-0.3-1-0.6-1.6-0.6c-0.4,0-0.8,0.2-1.2,0.5
		c-1.1,0.9-2.4,2.6-3.8,5.2c-2.1,3.8-3.7,7.8-5,11.9c-0.2,0.6-0.4,1.2-0.7,1.7c-1,1.8-2.2,3.4-3.6,4.9c-1.6,1.8-3.3,3.6-5.2,5.2
		c-0.5,0.5-1.1,0.8-1.7,0.9c-0.4,0-0.5-0.2-0.4-0.7c0.3-2,1.4-4.3,3.3-6.8c1.2-1.8,2.7-3.3,4.5-4.6c0.8-0.4,1.7-0.4,2.5,0
		c0.1,0,0.2,0.1,0.3,0.1c0.3,0,0.4-0.1,0.4-0.3c0-0.1-0.1-0.2-0.2-0.3c-1.4-1.2-2.4-1.8-3-1.8c-0.7,0-1.3,0.3-1.8,0.8
		c-2.2,1.8-4,3.9-5.5,6.3c-1.4,2-2.4,4.2-2.9,6.6c0,0.1,0,0.3,0,0.4c0,0.7,0.5,1.3,1.4,1.8c0.3,0.3,0.8,0.5,1.2,0.6
		c0.5-0.1,1-0.3,1.4-0.6c1.4-1,2.7-2.1,3.9-3.4c1.7-1.7,3.3-3.5,4.8-5.3c-0.4,1.4-0.9,3.6-1.5,6.5c-0.1,0.2-0.1,0.5-0.1,0.8
		c0,0.4,0.1,0.7,0.4,1c0.1,0.1,0.5,0.3,1.2,0.8c0.1,0.1,0.3,0.2,0.5,0.2c0.3,0,0.5-0.2,0.6-0.7c0.5-2,1.4-3.9,2.7-5.4
		c0.3-0.4,0.3-0.6-0.1-0.6C672.3,379.2,672,379.4,671.7,379.8z"/>
	<path class="st0" d="M682.5,363.5c-0.2,0-0.4,0.2-0.7,0.5c-0.8,0.8-1.7,1.5-2.6,2.2c-0.1,0-0.2,0-0.3,0c0,0.1,0,0.1,0,0.2
		c0.1,0.1,0.1,0.2,0.2,0.2c0.3,0.2,0.7,0.4,1.1,0.4c0.8,0.1,1.7-0.1,2.4-0.5c1.2-0.8,1.9-1.3,1.9-1.7c0-0.2-0.1-0.4-0.3-0.5
		C683.7,363.9,683.1,363.7,682.5,363.5z"/>
	<path class="st0" d="M679.7,370.6c-0.3-0.2-0.6-0.4-1-0.4c-0.3,0-0.5,0.1-0.7,0.3c-0.8,0.7-1.5,1.5-2.2,2.4
		c-0.1,0.1-0.2,0.2-0.2,0.4c0,0.3,0.2,0.3,0.7-0.1l1.3-1.1c0.2-0.2,0.4-0.3,0.7-0.4c0.2,0,0.2,0.3,0.2,0.9c-0.3,2.1-0.8,4.1-1.5,6.1
		c-0.6,2.1-1.5,4.1-2.6,6c-0.1,0.1-0.2,0.3-0.2,0.5c0,0.1,0.2,0.2,0.6,0.4c0.4,0.2,0.9,0.4,1.4,0.4c0.3,0,0.6-0.1,0.7-0.4
		c0.5-1.1,1.2-2.2,1.9-3.2c1.1-1.6,1.7-2.5,1.8-2.6c0.2-0.4,0.2-0.5-0.1-0.5c-0.1,0-0.2,0.1-0.3,0.2c-0.5,0.7-1.1,1.3-1.8,1.8
		c1.1-2.8,2-5.6,2.7-8.5c0.1-0.3,0.1-0.5,0.1-0.8c0-0.4-0.1-0.8-0.5-1C680.7,370.8,680.3,370.7,679.7,370.6z"/>
	<path class="st0" d="M698.7,372.1c0-0.2-0.2-0.4-0.5-0.6c-0.4-0.4-1-0.6-1.5-0.8c-0.2,0-0.4,0.3-0.6,0.9c-0.1,0.3-0.4,0.9-0.7,1.7
		c-1,1.8-2.2,3.4-3.6,4.9c-1.6,1.9-3.3,3.6-5.2,5.2c-0.5,0.5-1.1,0.8-1.7,0.9c-0.3,0-0.4-0.2-0.4-0.5c0-0.1,0-0.2,0-0.2
		c0.4-2,1.5-4.3,3.4-6.8c1.2-1.8,2.7-3.3,4.5-4.6c0.8-0.4,1.7-0.4,2.5,0c0.1,0,0.2,0.1,0.3,0.1c0.3,0,0.5-0.1,0.5-0.3
		c0-0.1-0.1-0.2-0.2-0.3c-1.4-1.2-2.4-1.8-3-1.8c-0.7,0-1.3,0.3-1.8,0.8c-2.2,1.8-4.1,3.9-5.6,6.3c-1.4,2-2.4,4.2-2.8,6.5
		c0,0.2,0,0.3,0,0.5c0,0.7,0.5,1.4,1.1,1.7c0.3,0.3,0.7,0.5,1.2,0.6c0.5-0.1,1-0.3,1.4-0.6c1.5-1.1,2.8-2.3,4.1-3.6
		c1.9-1.8,3.6-3.8,5.1-5.9c-1,2.6-1.8,5.3-2.3,8c-0.1,0.3-0.1,0.6,0,0.8c0.2,0.2,0.4,0.4,0.7,0.6c0.4,0.3,0.9,0.5,1.4,0.6
		c0.3,0,0.5-0.3,0.6-0.8c0.5-1.9,1.4-3.8,2.7-5.3c0.1-0.1,0.2-0.3,0.2-0.4c0-0.2-0.1-0.3-0.3-0.3c-0.3,0-0.5,0.1-0.6,0.3
		c-0.2,0.2-0.4,0.4-0.7,0.6c-0.4,0.4-0.6,0.6-0.9,0.8c0.7-2.8,1.6-5.5,2.7-8.1C698.6,372.7,698.7,372.4,698.7,372.1z"/>
	<ellipse class="st1" cx="177.3" cy="220.3" rx="108.4" ry="108.3"/>
	<path class="st2" d="M177.3,329.6c-60.3,0-109.4-49-109.4-109.3s49-109.2,109.4-109.2s109.4,49,109.4,109.3
		S237.6,329.6,177.3,329.6z M177.3,113.1c-59.2,0-107.4,48.1-107.4,107.2S118,327.6,177.3,327.6s107.4-48.1,107.4-107.2
		S236.5,113.1,177.3,113.1L177.3,113.1z"/>
	<path class="st3" d="M177.3,136.5c46.3,0.1,83.7,37.6,83.7,83.9c-0.1,46.3-37.6,83.7-83.9,83.7c-46.2-0.1-83.7-37.6-83.7-83.8
		C93.4,174,131,136.5,177.3,136.5z"/>
	<path class="st0" d="M177.3,138.8c45,0.1,81.4,36.6,81.4,81.6s-36.6,81.4-81.6,81.4c-45-0.1-81.4-36.5-81.4-81.5
		C95.7,175.3,132.2,138.8,177.3,138.8z"/>
	<path class="st4" d="M119.9,162.4L107.1,262C88,229.8,93.2,188.7,119.9,162.4z"/>
	<path class="st4" d="M111,267.8l33-121.9c10.5-4.7,21.8-7.1,33.2-7.1l0,0c6.3,0,12.5,0.7,18.6,2.2l-78,135.2
		C115.4,273.5,113.1,270.8,111,267.8z"/>
	<path class="st4" d="M120.7,279.1l100.1-127.6c14.2,9,25.3,22.1,31.8,37.6l-125.3,95.7C125.1,283,122.8,281.1,120.7,279.1z"/>
	<path class="st4" d="M130.8,287.3l127.9-72.4c0.1,1.8,0.2,3.6,0.2,5.4c0,16.8-5.2,33.2-14.9,46.9L142.4,294
		C138.3,292.1,134.5,289.9,130.8,287.3z"/>
	<path class="st4" d="M152.8,298.1l66.9-8.1C199.5,302.1,175.2,305.1,152.8,298.1z"/>
	<path class="st2" d="M177.3,302.8c-45.6,0-82.6-37-82.6-82.5s37.1-82.5,82.6-82.5s82.6,37,82.6,82.5S222.8,302.8,177.3,302.8z
		 M177.3,139.9c-44.4,0-80.6,36.1-80.6,80.5s36.2,80.4,80.6,80.4s80.6-36.1,80.6-80.4S221.7,139.9,177.3,139.9L177.3,139.9z"/>
	<path class="st0" d="M76.8,239.6l-0.2-1.3l11.4-1.7l-0.7-4.8l1.2-0.2l0.9,6.1L76.8,239.6z M74.8,223.7c-0.1-1.8,0.6-3.6,1.9-4.9
		c2.6-2.6,6.8-2.7,9.5-0.1c2.6,2.6,2.7,6.8,0.1,9.5c-1.2,1.3-2.9,2-4.7,2c-1.2,0-2.4-0.3-3.4-0.9C76.1,228.3,74.8,226.1,74.8,223.7
		L74.8,223.7z M76.1,223.7c0,0.9,0.2,1.9,0.7,2.7s1.2,1.5,2,2s1.8,0.7,2.8,0.7c3,0,5.4-2.4,5.4-5.4c0,0,0,0,0-0.1
		c0-1-0.2-1.9-0.7-2.7s-1.2-1.5-2-1.9c-0.8-0.5-1.8-0.7-2.8-0.7s-1.9,0.2-2.7,0.7C77.1,219.9,76.1,221.7,76.1,223.7L76.1,223.7z
		 M75.2,213.4l0.2-1.4l10.4-2.7l-9.1-5.7l0.2-1.3l11.8,7.4v0.3L75.2,213.4z M77.6,198.7l1.8-7.1l1.2,0.3l-1.5,5.8l3.9,1l1.5-5.7
		l1.2,0.3l-1.5,5.8l4.8,1.3l1.5-5.8l1.2,0.3l-1.8,7L77.6,198.7z M80.6,188.3l11.9,4.5l2.2-5.8l-1.1-0.4l-1.7,4.6l-10.8-4L80.6,188.3
		L80.6,188.3z M83.6,180.5l0.6-1.3l6.1-0.6l-3.4-5.2l0.6-1.3l4.3,6.5l5.5,2.6l-0.5,1.1l-5.5-2.6L83.6,180.5z"/>
	<path class="st0" d="M107.5,147l1.9-1.6c0.7-0.7,1.5-1.2,2.4-1.8c0.6-0.3,1.4-0.4,2.1-0.3c0.7,0.2,1.4,0.6,1.9,1.2
		c0.5,0.6,0.8,1.3,0.8,2s-0.3,1.5-0.7,2.1c-0.7,0.8-1.5,1.6-2.3,2.2l-0.7,0.6l3.8,4.5l-1,0.8L107.5,147z M109.3,147.1l2.8,3.3
		l1.7-1.4c0.5-0.4,1-0.9,1.3-1.4c0.2-0.4,0.3-0.8,0.3-1.2c-0.1-0.4-0.2-0.8-0.5-1.1c-0.3-0.3-0.6-0.5-1-0.7c-0.4-0.1-0.8-0.1-1.2,0
		c-0.6,0.2-1.1,0.6-1.6,1L109.3,147.1L109.3,147.1z M116.6,139.4l7.3,10.4l1-0.7l-3.4-4.9l0.6-0.4l7.2,2.2l1.3-0.9l-7.2-2.2
		c0.7-0.5,1.3-1.1,1.8-1.8c0.3-0.5,0.5-1.2,0.5-1.8c0-0.6-0.3-1.3-0.6-1.8c-0.4-0.6-1.1-1.1-1.8-1.3c-0.7-0.2-1.5-0.1-2.2,0.2
		c-0.9,0.4-1.7,0.9-2.5,1.5L116.6,139.4L116.6,139.4z M118.4,139.7l1.8-1.3c0.5-0.4,1.1-0.7,1.7-0.9c0.4-0.1,0.8-0.1,1.2,0.1
		c0.4,0.1,0.7,0.4,0.9,0.7c0.2,0.3,0.4,0.7,0.4,1.2c0,0.4-0.1,0.8-0.3,1.2c-0.4,0.5-0.9,0.9-1.4,1.3l-1.8,1.2L118.4,139.7
		L118.4,139.7z M132.1,129.5c1.6-0.9,3.5-1,5.2-0.5c3.5,1.1,5.5,4.9,4.4,8.4c-0.5,1.7-1.8,3.1-3.4,4c-1.6,0.8-3.4,1-5.2,0.4
		c-1.7-0.5-3.1-1.7-3.9-3.3c-0.5-1.1-0.8-2.2-0.7-3.4C128.6,132.7,130,130.5,132.1,129.5L132.1,129.5z M132.7,130.5
		c0.9-0.4,1.8-0.6,2.8-0.6c0.9,0,1.9,0.3,2.7,0.8s1.5,1.3,1.9,2.2c0.4,0.9,0.7,1.8,0.6,2.8c-0.1,0.9-0.4,1.8-0.9,2.6
		s-1.3,1.5-2.2,1.9c-2.6,1.3-5.9,0.3-7.2-2.4c-0.5-0.9-0.7-1.8-0.6-2.8C129.9,133.2,131,131.4,132.7,130.5L132.7,130.5z
		 M142.8,125.2l6.1-2l0.4,1.2l-4.9,1.6l1.2,3.8l4.9-1.6l0.4,1.2L146,131l1.9,5.9l-1.2,0.4L142.8,125.2L142.8,125.2z M152.2,122.3
		l7.2-1.5l0.3,1.2l-5.9,1.2l0.8,3.9l5.9-1.2l0.3,1.2l-5.9,1.2l1,4.9l5.9-1.2l0.2,1.2l-7.1,1.5L152.2,122.3L152.2,122.3z
		 M162.6,130.6l1-0.8c0.9,1.3,1.9,1.9,2.9,1.8c0.4,0,0.8-0.2,1.2-0.4c0.3-0.2,0.6-0.5,0.7-0.9c0.2-0.3,0.2-0.7,0.2-1.1
		c-0.1-0.4-0.3-0.9-0.6-1.2c-0.7-0.7-1.5-1.3-2.4-1.8c-0.8-0.4-1.5-0.9-2.2-1.5c-0.5-0.5-0.8-1.1-0.9-1.8c-0.1-0.5,0-1.1,0.2-1.6
		s0.6-0.9,1-1.2c0.4-0.3,1-0.5,1.5-0.6c0.6-0.1,1.2,0,1.7,0.2c0.7,0.3,1.3,0.8,1.8,1.4l-0.9,0.9c-0.4-0.4-0.9-0.8-1.4-1.1
		c-0.4-0.2-0.7-0.2-1.1-0.2c-0.5,0-0.9,0.3-1.2,0.6c-0.3,0.3-0.4,0.8-0.3,1.2c0,0.3,0.1,0.5,0.3,0.8s0.4,0.5,0.7,0.8
		c0.2,0.1,0.8,0.5,1.8,1.1c0.9,0.5,1.8,1.1,2.5,1.9c0.5,0.5,0.8,1.2,0.9,1.8c0.1,0.9-0.1,1.8-0.7,2.5c-0.6,0.7-1.5,1.2-2.4,1.3
		c-0.7,0.1-1.5,0-2.2-0.4C163.8,132.1,163.2,131.4,162.6,130.6L162.6,130.6z M171.7,129.6l1.1-0.7c0.8,1.4,1.7,2.1,2.7,2.1
		c0.4,0,0.8-0.1,1.2-0.3c0.7-0.4,1.1-1.1,1.1-1.9c0-0.5-0.2-0.9-0.5-1.3c-0.6-0.8-1.4-1.4-2.2-2c-0.7-0.5-1.4-1.1-2-1.7
		c-0.5-0.5-0.7-1.2-0.7-1.9c0-1.1,0.5-2.1,1.5-2.6c0.5-0.3,1-0.4,1.6-0.4s1.2,0.1,1.7,0.4c0.7,0.4,1.2,1,1.7,1.6l-1,0.8
		c-0.3-0.5-0.8-0.9-1.3-1.2c-0.3-0.2-0.7-0.3-1.1-0.3c-0.5,0-0.9,0.2-1.3,0.5c-0.3,0.3-0.5,0.7-0.5,1.2c0,0.3,0.1,0.6,0.2,0.8
		c0.2,0.3,0.4,0.6,0.6,0.8c0.2,0.2,0.7,0.6,1.7,1.2c0.9,0.6,1.7,1.3,2.3,2.2c0.4,0.6,0.6,1.2,0.7,1.9c0,0.9-0.3,1.8-1,2.4
		c-0.7,0.7-1.6,1.1-2.5,1.1c-0.7,0-1.5-0.2-2.1-0.6C172.7,131.1,172.1,130.4,171.7,129.6L171.7,129.6z M182.6,119.3l1.3,0.1
		l-0.9,12.7l-1.3-0.1L182.6,119.3z M194.2,120.2c1.8,0.3,3.4,1.3,4.4,2.7c2.1,3,1.4,7.2-1.6,9.3c-1.5,1-3.3,1.4-5,1.1
		c-1.8-0.3-3.4-1.3-4.4-2.7s-1.4-3.2-1.1-4.9c0.2-1.2,0.7-2.3,1.5-3.2c0.7-0.9,1.7-1.6,2.8-2S193,120,194.2,120.2L194.2,120.2z
		 M194,121.5c-1.9-0.3-3.8,0.4-5,1.9c-0.6,0.7-1,1.6-1.2,2.6c-0.5,2.9,1.4,5.7,4.3,6.2c0,0,0,0,0.1,0c0.9,0.2,1.9,0.1,2.8-0.2
		c0.9-0.3,1.7-0.9,2.3-1.6s1-1.6,1.2-2.6c0.2-0.9,0.1-1.9-0.2-2.8s-0.9-1.7-1.6-2.3C195.8,122.1,195,121.6,194,121.5L194,121.5z
		 M201.1,134.9l3.9-12.1l0.3,0.1l5,11.9l3-9.3l1.2,0.4l-3.9,12.1l-0.3-0.1l-5-11.8l-3,9.2L201.1,134.9L201.1,134.9z M223.9,130.2
		l-0.3-0.1l-11.2,8.6l1.3,0.6l3.7-2.8l4.9,2.5l-0.1,4.6l1.2,0.6L223.9,130.2L223.9,130.2z M222.5,132.6l-0.2,5.1l-3.9-2L222.5,132.6
		z M231.7,134.8l1.1,0.7l-6.1,9.8l4.2,2.6l-0.7,1l-5.3-3.3L231.7,134.8z"/>
	<path class="st0" d="M255.9,155.7l0.8,1l-6,4.8c-0.5,0.3-0.9,0.7-1.3,1.1c-0.3,0.3-0.6,0.7-0.7,1.1c-0.1,0.4-0.1,0.9,0,1.4
		s0.3,0.9,0.6,1.3c0.5,0.7,1.3,1,2.2,1.1c0.4,0,0.9-0.1,1.3-0.3c0.6-0.3,1.1-0.7,1.6-1.1l6-4.8l0.8,1l-6,4.8
		c-0.7,0.6-1.5,1.1-2.4,1.5c-0.7,0.3-1.5,0.3-2.3,0.1c-0.9-0.2-1.6-0.7-2.2-1.4c-0.6-0.7-1-1.6-1.1-2.5c-0.1-0.8,0.1-1.7,0.6-2.4
		c0.6-0.7,1.2-1.3,1.9-1.9L255.9,155.7L255.9,155.7z M252.9,173.1l0.7,1.1l8.4-4.8l-4.2,12.1l0.2,0.2l11-6.4l-0.7-1.1l-8.5,4.9
		l4.2-12.2l-0.1-0.2L252.9,173.1L252.9,173.1z M270.7,179.1l0.5,1.2l-11.6,5.4l-0.5-1.2L270.7,179.1z M272.5,183.2l-10.3,9.3
		l0.1,0.3l13.9,1.1l-0.5-1.3l-10.7-0.9l8-7.2L272.5,183.2L272.5,183.2z M277.2,197.6l1.4,7.2l-1.2,0.2l-1.1-5.9l-3.9,0.8l1.1,5.9
		l-1.2,0.2l-1.1-5.9l-4.9,1l1.1,5.9l-1.2,0.2l-1.4-7.1L277.2,197.6L277.2,197.6z M278.9,208.4l0.2,2.5c0.1,1,0.1,1.9,0.1,2.9
		c-0.1,0.7-0.4,1.4-0.9,1.9c-0.5,0.6-1.3,0.9-2,0.9c-0.6,0.1-1.3,0-1.9-0.3s-1-0.7-1.3-1.3c-0.4-0.8-0.6-1.6-0.6-2.5l-5.5,5.1
		l-0.1-1.6l5.5-5.1l-0.1-0.7l-5.9,0.5l-0.1-1.3L278.9,208.4L278.9,208.4z M277.8,209.7l-4.3,0.4l0.2,2.2c0,0.6,0.2,1.3,0.4,1.9
		c0.2,0.4,0.5,0.7,0.9,0.9s0.8,0.3,1.2,0.2c0.4,0,0.8-0.2,1.1-0.4c0.3-0.2,0.6-0.6,0.7-1c0.1-0.6,0.1-1.3,0.1-1.9L277.8,209.7
		L277.8,209.7z M269.3,219l0.6,1.1c-1.4,0.7-2.2,1.6-2.2,2.6c0,0.4,0.1,0.8,0.3,1.2c0.4,0.7,1.1,1.2,1.9,1.2c0.5,0,0.9-0.1,1.3-0.4
		c0.8-0.6,1.5-1.3,2.1-2.2c0.5-0.7,1.1-1.4,1.8-2c0.6-0.4,1.3-0.7,2-0.6c0.5,0,1.1,0.1,1.5,0.4c0.5,0.3,0.8,0.7,1.1,1.1
		c0.3,0.5,0.4,1,0.4,1.6s-0.2,1.2-0.5,1.7c-0.4,0.7-1,1.2-1.7,1.6l-0.8-1.1c0.5-0.3,0.9-0.7,1.3-1.2c0.2-0.3,0.3-0.7,0.3-1.1
		c0-0.5-0.1-0.9-0.5-1.3c-0.3-0.3-0.7-0.5-1.1-0.5c-0.3,0-0.6,0-0.8,0.2c-0.3,0.2-0.6,0.4-0.9,0.6c-0.2,0.2-0.6,0.7-1.3,1.6
		c-0.6,0.9-1.4,1.6-2.2,2.2c-0.6,0.4-1.2,0.6-1.9,0.6c-0.9,0-1.8-0.4-2.4-1.1c-0.7-0.7-1-1.6-1-2.6c0-0.7,0.2-1.5,0.7-2.1
		C267.7,219.9,268.5,219.3,269.3,219L269.3,219z M279.4,229.6l-0.1,1.3l-12.7-0.9l0.1-1.3L279.4,229.6z M277.8,233.7l1.2,0.2
		l-1.2,6.9l-1.2-0.2l0.5-2.8l-11.3-2l0.2-1.3l11.3,2L277.8,233.7L277.8,233.7z M277.5,242.7l-0.4,1.4l-5.9,1.8l4.2,4.5l-0.4,1.4
		l-5.4-5.6l-5.9-1.6l0.3-1.2l5.9,1.6L277.5,242.7z"/>
	<path class="st0" d="M116.6,284.8l1.9,1.6c0.8,0.6,1.5,1.3,2.1,2.1c0.4,0.6,0.7,1.3,0.6,2c-0.1,1.5-1.2,2.8-2.7,3.2
		c-0.7,0.1-1.5,0-2.2-0.4c-0.9-0.6-1.8-1.2-2.6-2l-0.7-0.6l-3.9,4.5l-1-0.8L116.6,284.8L116.6,284.8z M116.7,286.5l-2.8,3.3l1.6,1.4
		c0.5,0.4,1,0.8,1.6,1.1c0.4,0.1,0.8,0.1,1.2,0c0.4-0.1,0.8-0.3,1-0.7c0.3-0.3,0.4-0.7,0.5-1.1s0-0.8-0.2-1.2
		c-0.3-0.5-0.8-1-1.3-1.4L116.7,286.5L116.7,286.5z M124.2,291.2l-4.3,6.4c-0.5,0.7-1,1.5-1.3,2.4c-0.2,0.8-0.2,1.7,0.2,2.4
		c0.4,0.9,1,1.6,1.8,2.1c1.4,1,3.2,0.9,4.6-0.1c0.7-0.6,1.3-1.3,1.8-2.1l4.3-6.4l-1.1-0.7l-4.3,6.4c-0.3,0.6-0.8,1.1-1.2,1.6
		c-0.3,0.3-0.7,0.5-1.1,0.6s-0.8,0.2-1.2,0.1c-0.4-0.1-0.8-0.2-1.2-0.4c-0.4-0.3-0.8-0.7-1-1.1c-0.3-0.4-0.4-0.8-0.4-1.3
		s0.1-0.9,0.3-1.3c0.1-0.2,0.4-0.7,0.9-1.4l4.3-6.4L124.2,291.2L124.2,291.2z M127.9,308.3l5.9-11.3l0.2,0.1l3,12.6l4.5-8.7l1.1,0.6
		l-5.9,11.3l-0.3-0.1l-3-12.4l-4.5,8.5L127.9,308.3z M148.5,303.4l-2.6,8.2c-0.2,0.7-0.5,1.4-0.8,2c-0.2,0.3-0.5,0.5-0.9,0.6
		c-0.3,0.1-0.7,0.1-1,0s-0.5-0.2-0.7-0.4c-0.5-0.4-0.9-0.9-1.3-1.4l-0.9,0.8c0.3,0.6,0.8,1.1,1.3,1.5c0.4,0.3,0.9,0.6,1.4,0.7
		c0.6,0.2,1.2,0.2,1.8,0.1c0.5-0.1,1-0.4,1.4-0.9c0.5-0.8,0.9-1.6,1.1-2.5l2.6-8.2L148.5,303.4L148.5,303.4z M157.8,306.1l2.8,13.8
		l-1.3-0.3l-1-4.5l-5.3-1.3l-2.9,3.6l-1.4-0.3l8.8-11L157.8,306.1L157.8,306.1z M157,308.7l-3.2,4l4.2,1L157,308.7L157,308.7z
		 M165.3,307.4l2.5,0.3c0.8,0.1,1.6,0.3,2.3,0.7c0.5,0.3,0.9,0.7,1.1,1.3c0.2,0.5,0.3,1.1,0.3,1.7c-0.1,0.5-0.3,1.1-0.6,1.5
		c-0.4,0.4-0.8,0.8-1.4,1c0.5,0.2,1,0.6,1.4,1c0.3,0.3,0.5,0.8,0.7,1.2c0.1,0.5,0.2,1,0.1,1.4c-0.1,1-0.6,1.9-1.4,2.4
		c-0.9,0.6-2,0.9-3.1,0.7l-3.5-0.5L165.3,307.4L165.3,307.4z M166.4,308.8l-0.5,4.1l0.7,0.1c0.7,0.1,1.3,0.1,2,0
		c0.4-0.1,0.8-0.3,1.1-0.6c0.3-0.3,0.5-0.7,0.5-1.1c0.1-0.5-0.1-1.1-0.4-1.4c-0.5-0.4-1.2-0.7-1.9-0.7L166.4,308.8L166.4,308.8z
		 M165.7,314.1L165,319l1.6,0.2c0.7,0.1,1.4,0.1,2.1,0c0.4-0.1,0.8-0.4,1.1-0.7c0.3-0.3,0.5-0.8,0.6-1.2c0.1-0.5,0-1.1-0.4-1.5
		c-0.3-0.5-0.8-0.9-1.4-1.1c-0.7-0.2-1.5-0.4-2.2-0.5L165.7,314.1L165.7,314.1z M182.6,307.5l1.4-0.1c-0.6,1.3-1,2.7-1.2,4.1
		c-0.3,1.6-0.4,3.2-0.3,4.8c0.1,1.5,0.3,3,0.6,4.4c0.3,1.3,0.7,2.5,1.2,3.7l-1.3,0.1c-0.5-1.2-0.9-2.4-1.2-3.6
		c-0.3-1.4-0.5-2.9-0.6-4.3c-0.1-1.6,0-3.2,0.2-4.8C181.7,310.4,182.1,308.9,182.6,307.5L182.6,307.5z M187,307.8l1.3-0.1l1,12.7
		l-1.3,0.1L187,307.8z M193.2,320l-2.5-12.5l0.3-0.1l10.3,7.9l-1.9-9.6l1.2-0.3L203,318l-0.3,0.1l-10.2-7.8l1.9,9.4L193.2,320
		L193.2,320z M207.1,316.8l3.8-1.4c1.2-0.4,2.3-1,3.3-1.9c0.7-0.8,1.1-1.7,1.3-2.7c0.2-1.2,0.1-2.4-0.4-3.5
		c-0.4-1.3-1.2-2.4-2.3-3.3c-1-0.8-2.2-1.2-3.5-1.2c-1.4,0.1-2.8,0.4-4.1,0.9l-2.5,0.9L207.1,316.8L207.1,316.8z M207.8,315.3
		l-3.4-9.7l0.8-0.3c1.2-0.5,2.5-0.8,3.8-1c1.1-0.1,2.1,0.2,3,0.9c0.9,0.7,1.6,1.6,1.9,2.7c0.4,1,0.5,2.1,0.2,3.1
		c-0.2,0.9-0.8,1.8-1.6,2.3c-1,0.7-2.2,1.2-3.4,1.5L207.8,315.3L207.8,315.3z M214.7,300.2l1.2-0.5l5.3,11.6l-1.2,0.5L214.7,300.2
		L214.7,300.2z M222.9,296.3l11.6,8l-1.2,0.7l-3.9-2.6l-4.7,2.8l0.4,4.6l-1.2,0.7l-1.2-14.1L222.9,296.3L222.9,296.3z M224.1,298.7
		l0.5,5.1l3.8-2.2L224.1,298.7L224.1,298.7z M239.8,304.9c-0.3-1.4-0.8-2.9-1.5-4.2c-0.7-1.4-1.5-2.8-2.5-4.1
		c-0.9-1.2-1.8-2.3-2.9-3.3c-0.9-0.9-1.9-1.7-3-2.3l-1.1,0.8c1.1,0.7,2.1,1.5,3.1,2.4c1.1,1,2.1,2.1,2.9,3.3c1,1.3,1.8,2.7,2.4,4.2
		c0.6,1.3,1,2.7,1.3,4.1L239.8,304.9z"/>
	<path class="st0" d="M97,269.7c2,0,3.7,1.6,3.7,3.7c0,2-1.6,3.7-3.7,3.7s-3.7-1.6-3.7-3.7C93.4,271.3,95,269.7,97,269.7z"/>
	<path class="st2" d="M97,277.3c-2.2,0-3.9-1.8-3.9-4c0-2.2,1.8-3.9,4-3.9s3.9,1.8,3.9,3.9C101,275.5,99.2,277.3,97,277.3L97,277.3z
		 M97,269.9c-1.9,0-3.4,1.5-3.4,3.4s1.5,3.4,3.4,3.4s3.4-1.5,3.4-3.4C100.4,271.5,98.9,269.9,97,269.9L97,269.9z"/>
	<path class="st0" d="M256.5,269.7c2,0,3.7,1.6,3.7,3.7c0,2-1.6,3.7-3.7,3.7c-2,0-3.7-1.6-3.7-3.7
		C252.9,271.3,254.5,269.7,256.5,269.7L256.5,269.7z"/>
	<path class="st2" d="M256.5,277.3c-2.2,0-3.9-1.8-3.9-3.9c0-2.2,1.8-3.9,3.9-3.9c2.2,0,3.9,1.8,3.9,3.9
		C260.5,275.5,258.7,277.3,256.5,277.3z M256.5,269.9c-1.9,0-3.4,1.5-3.4,3.4s1.5,3.4,3.4,3.4s3.4-1.5,3.4-3.4
		C259.9,271.5,258.4,269.9,256.5,269.9L256.5,269.9z"/>
	<rect x="323" y="113.2" class="st5" width="60.5" height="60.5"/>
	<path class="st2" d="M384.5,174.7h-62.6v-62.5h62.6V174.7z M324,172.7h58.5v-58.5H324V172.7z"/>
	<rect x="323" y="187.4" class="st5" width="60.5" height="60.5"/>
	<path class="st2" d="M384.5,249h-62.6v-62.5h62.6V249z M324,247h58.5v-58.5H324V247z"/>
	<rect x="323" y="261.7" class="st5" width="60.5" height="60.5"/>
	<path class="st2" d="M384.5,323.2h-62.6v-62.5h62.6V323.2z M324,321.2h58.5v-58.5H324V321.2z"/>
	<path class="st2" d="M402.8,164.6c2.5,1.1,5.3,1.6,8,1.6c2.2,0,4.4-0.3,6.5-1c4.1-1.3,7.7-3.9,10.1-7.5c1.3-2,2.3-4.2,2.9-6.5
		c0.7-2.7,1.1-5.4,1-8.2c0-3.1-0.5-6.1-1.4-9c-0.8-2.6-2.2-5-4-7.1c-1.7-2-3.9-3.6-6.2-4.6c-5.2-2.2-11.1-2.2-16.3,0
		c-2.5,1.1-4.7,2.7-6.5,4.7c-1.9,2.1-3.3,4.6-4.2,7.3c-1,3.1-1.6,6.3-1.5,9.5c0,3.1,0.5,6.2,1.4,9.1c0.9,2.6,2.3,5,4.1,7.1
		C398.2,162,400.4,163.5,402.8,164.6z M397.6,138.1c0.4-1.7,0.9-3.4,1.7-5c0.7-1.5,1.7-2.9,2.8-4c1.1-1.2,2.5-2.1,4-2.7
		c1.6-0.7,3.4-1,5.1-1c3.4-0.1,6.7,1.3,9,3.8c1.1,1.2,2.1,2.6,2.8,4.1c0.7,1.6,1.3,3.2,1.7,4.9c0.4,1.7,0.5,3.5,0.5,5.3
		c0,2.4-0.3,4.8-0.9,7.1c-0.6,2.1-1.5,4-2.7,5.8c-1.2,1.6-2.7,3-4.4,3.9c-1.9,1-3.9,1.5-6,1.4c-1.7,0-3.4-0.3-4.9-0.9
		c-1.5-0.6-2.8-1.5-3.9-2.6c-1.2-1.1-2.1-2.5-2.9-3.9c-0.8-1.5-1.4-3.2-1.7-4.9c-0.4-1.8-0.6-3.6-0.6-5.5
		C397,141.8,397.2,140,397.6,138.1z"/>
	<polygon class="st2" points="505.3,160.7 486.2,160.7 486.2,144.9 503.3,144.9 503.3,140.2 486.2,140.2 486.2,126.3 504.3,126.3 
		504.3,121.5 480.5,121.5 480.5,165.5 505.3,165.5 	"/>
	<path class="st2" d="M553.3,165.5h5.7v-18.7l14.7-25.2h-6.4l-6.3,12.1c-0.9,1.7-1.7,3.2-2.4,4.7s-1.4,2.9-2,4.4h-0.1
		c-0.5-1-0.9-2-1.4-3l-1.4-2.9c-0.5-1-1-2-1.6-3.1l-6.2-12.1h-6.5l14,25.3L553.3,165.5z"/>
	<path class="st2" d="M457.3,165.5l15.7-44h-6.1l-7.4,21.7c-1,2.9-1.9,5.7-2.8,8.4c-0.9,2.8-1.6,5.4-2.2,7.9h-0.1
		c-0.6-2.6-1.3-5.2-2.2-7.9c-0.8-2.7-1.7-5.6-2.6-8.5l-6.9-21.7h-6.2l14.4,44L457.3,165.5z"/>
	<polygon class="st2" points="539.9,160.7 521.1,160.7 521.1,121.5 515.4,121.5 515.4,165.5 539.9,165.5 	"/>
	<rect x="558.6" y="195.3" class="st2" width="4.9" height="44"/>
	<path class="st2" d="M634.3,239.3v-44h-4.5v18.4c0,2.3,0,4.4,0,6.4s0.1,4,0.2,5.9c0.1,1.9,0.2,3.8,0.3,5.7l-0.2,0.1
		c-0.9-2.2-1.8-4.5-2.9-6.9c-1.1-2.3-2.3-4.8-3.7-7.4l-11.9-22.3h-5.3v44h4.5v-18.8c0-2.4,0-4.7,0-6.7c0-2.1,0-4-0.1-5.9
		s-0.1-3.7-0.2-5.5l0.2-0.1c0.9,2.4,2,4.8,3.2,7.3s2.4,4.9,3.7,7.4l11.8,22.3h4.9V239.3z"/>
	<path class="st2" d="M397.6,220.2h4.5c1.3,0,2.5,0.3,3.6,1c1,0.7,1.9,1.6,2.4,2.7c0.7,1.5,1.2,3.2,1.4,4.9c0.5,2.8,1,5,1.4,6.8
		c0.2,1.3,0.6,2.5,1.1,3.7h5c-0.5-1.4-1-2.9-1.3-4.4c-0.5-2.1-1-4.6-1.6-7.7c-0.3-2-1-3.9-2-5.7c-0.8-1.4-2-2.5-3.4-3.2v-0.2
		c1.3-0.5,2.5-1.3,3.5-2.3c1.1-1.1,1.9-2.3,2.5-3.7c0.6-1.6,1-3.4,0.9-5.1c0-1.6-0.3-3.2-0.8-4.8c-0.5-1.3-1.2-2.6-2.2-3.6
		c-1.2-1.3-2.7-2.2-4.3-2.7c-2.1-0.7-4.3-1-6.5-0.9c-1.1,0-2.2,0.1-3.3,0.1c-1.1,0.1-2.2,0.2-3.2,0.3s-1.9,0.3-2.7,0.5v43.4h4.8
		v-19.1H397.6z M397.6,199.9c0.6-0.2,1.2-0.3,1.8-0.3c1-0.1,2-0.1,2.9-0.1c1.5,0,3.1,0.3,4.5,0.8c1.2,0.6,2.3,1.5,3,2.7
		c1.4,2.8,1.4,6.2,0.1,9c-0.7,1.2-1.7,2.2-2.9,2.9c-1.4,0.7-2.9,1.1-4.5,1h-4.9V199.9z"/>
	<path class="st2" d="M597.3,200.8c-1.4-1.9-3.2-3.5-5.3-4.6c-4.3-2.2-9.5-2.2-13.8,0c-2.1,1.1-4,2.7-5.5,4.7
		c-1.6,2.2-2.8,4.7-3.6,7.3c-0.9,3.1-1.3,6.3-1.3,9.5c0,3.1,0.4,6.1,1.2,9.1c0.7,2.5,1.9,4.9,3.4,7.1c1.4,1.9,3.2,3.5,5.3,4.6
		s4.4,1.6,6.8,1.6c1.9,0,3.7-0.3,5.4-1s3.4-1.6,4.7-2.9c1.5-1.3,2.8-2.9,3.7-4.7c1.1-2,2-4.2,2.5-6.5c0.6-2.7,0.9-5.4,0.9-8.2
		c0-3-0.4-6.1-1.2-9C600,205.3,598.9,202.9,597.3,200.8z M596,224.2c-0.5,2-1.2,4-2.3,5.8c-0.9,1.6-2.2,2.9-3.7,3.9
		s-3.3,1.5-5.1,1.4c-1.4,0-2.9-0.3-4.2-0.9c-1.3-0.6-2.4-1.5-3.3-2.6c-1-1.2-1.8-2.5-2.4-3.9c-0.7-1.6-1.2-3.2-1.5-4.9
		c-0.3-1.8-0.5-3.7-0.5-5.5c0-1.9,0.2-3.7,0.5-5.6c0.3-1.7,0.8-3.4,1.4-5c0.6-1.5,1.4-2.8,2.4-4c0.9-1.1,2.1-2,3.4-2.7
		c1.3-0.7,2.8-1,4.3-1s3,0.3,4.3,1s2.4,1.6,3.3,2.8c1,1.2,1.8,2.6,2.4,4.1c0.7,1.6,1.1,3.2,1.4,4.9c0.3,1.7,0.5,3.5,0.5,5.3
		C596.9,219.5,596.6,221.9,596,224.2L596,224.2z"/>
	<path class="st2" d="M669.3,239.3l-12.7-44h-5.7l-12.7,44h5l3.9-13.8h13.2l4,13.8H669.3z M648,221l3.6-12.7c0.4-1.4,0.7-2.7,1-4
		c0.3-1.4,0.6-2.7,0.9-3.9h0.1c0.3,1.3,0.6,2.6,0.9,3.9s0.7,2.7,1.1,4.1l3.7,12.7H648V221z"/>
	<polygon class="st2" points="477.2,200.1 477.2,195.3 457.2,195.3 457.2,239.3 462,239.3 462,219.4 476.1,219.4 476.1,214.7 
		462,214.7 462,200.1 	"/>
	<path class="st2" d="M524.1,217.6c-1.6-1.3-3.4-2.4-5.2-3.2c-1.5-0.6-2.9-1.4-4.2-2.3c-1-0.7-1.8-1.6-2.4-2.7
		c-0.5-1.1-0.8-2.3-0.8-3.5c0-0.8,0.1-1.6,0.4-2.3c0.3-0.8,0.7-1.5,1.2-2.2c0.6-0.7,1.3-1.2,2.2-1.6c1-0.4,2.1-0.6,3.2-0.6
		c1,0,2.1,0.1,3.1,0.3c0.8,0.2,1.6,0.5,2.4,0.8c0.6,0.3,1.1,0.6,1.6,0.9l1.3-4.6c-0.6-0.4-1.3-0.8-2-1.1c-0.9-0.4-1.8-0.6-2.7-0.8
		c-1.1-0.2-2.3-0.3-3.4-0.3c-1.7,0-3.4,0.3-4.9,0.9c-2.9,1.1-5.1,3.4-6.2,6.3c-0.6,1.5-0.9,3.1-0.9,4.7c0,1.9,0.4,3.7,1.2,5.4
		c0.8,1.6,2,3,3.4,4.1c1.6,1.3,3.4,2.3,5.2,3.1c1.4,0.6,2.8,1.4,4.1,2.3c1,0.7,1.7,1.7,2.3,2.8c0.5,1.1,0.7,2.3,0.7,3.6
		c0,1.4-0.3,2.7-0.9,3.9c-0.6,1.1-1.5,2-2.6,2.6c-1.3,0.7-2.7,1-4.2,1c-1.6,0-3.2-0.3-4.7-0.8c-1.4-0.5-2.7-1.2-3.9-2l-1.3,4.8
		c0.8,0.6,1.6,1.1,2.5,1.4c2.2,0.9,4.6,1.4,6.9,1.4c2,0,3.9-0.3,5.7-1c1.5-0.6,2.9-1.6,4.1-2.8c1.1-1.2,1.9-2.6,2.4-4.1
		c0.5-1.6,0.8-3.2,0.8-4.8c0-1.9-0.3-3.8-1-5.6C526.6,220.1,525.5,218.7,524.1,217.6z"/>
	<path class="st2" d="M540.8,240c2,0,3.9-0.3,5.7-1c1.5-0.6,2.9-1.6,4.1-2.8c1.1-1.2,1.9-2.6,2.4-4.1c0.5-1.6,0.8-3.2,0.8-4.8
		c0-1.9-0.3-3.8-1-5.6c-0.7-1.6-1.8-3-3.1-4.2c-1.6-1.3-3.4-2.4-5.3-3.2c-1.5-0.6-2.9-1.4-4.2-2.3c-1-0.7-1.8-1.6-2.4-2.7
		c-0.5-1.1-0.8-2.3-0.8-3.5c0-0.8,0.1-1.6,0.4-2.3c0.3-0.8,0.7-1.5,1.2-2.2c0.6-0.7,1.3-1.2,2.2-1.6c1-0.4,2.1-0.6,3.2-0.6
		c1,0,2.1,0.1,3.1,0.3c0.8,0.2,1.6,0.5,2.4,0.8c0.6,0.3,1.1,0.6,1.6,0.9l1.3-4.6c-0.6-0.4-1.3-0.8-2-1.1c-0.9-0.4-1.8-0.6-2.7-0.8
		c-1.1-0.2-2.3-0.3-3.4-0.3c-1.7,0-3.4,0.3-4.9,0.9c-2.9,1.1-5.1,3.4-6.2,6.3c-0.6,1.5-0.9,3.1-0.9,4.7c0,1.9,0.4,3.7,1.2,5.4
		c0.8,1.6,2,3,3.4,4.1c1.6,1.3,3.4,2.3,5.2,3.1c1.4,0.6,2.8,1.4,4.1,2.3c1,0.7,1.7,1.7,2.3,2.8c0.5,1.1,0.7,2.3,0.7,3.6
		c0,1.4-0.3,2.7-0.9,3.9c-0.6,1.1-1.5,2-2.7,2.6c-1.3,0.7-2.7,1-4.2,1c-3.1,0-6.1-1-8.6-2.9l-1.3,4.8c0.8,0.6,1.6,1.1,2.5,1.4
		C536.1,239.5,538.5,240,540.8,240L540.8,240z"/>
	<polygon class="st2" points="693.7,234.6 677.8,234.6 677.8,195.3 672.9,195.3 672.9,239.3 693.7,239.3 	"/>
	<polygon class="st2" points="502.4,200.1 502.4,195.3 482.3,195.3 482.3,239.3 503.3,239.3 503.3,234.6 487.2,234.6 487.2,218.7 
		501.6,218.7 501.6,214 487.2,214 487.2,200.1 	"/>
	<path class="st2" d="M448.2,200.8c-1.4-1.9-3.2-3.5-5.3-4.6c-4.3-2.2-9.5-2.2-13.8,0c-2.1,1.1-4,2.7-5.5,4.7
		c-1.6,2.2-2.8,4.7-3.6,7.3c-0.9,3.1-1.3,6.3-1.3,9.5c0,3.1,0.4,6.1,1.2,9.1c0.7,2.5,1.9,4.9,3.4,7.1c1.4,1.9,3.2,3.5,5.3,4.6
		c2.1,1.1,4.4,1.6,6.8,1.6c1.9,0,3.7-0.3,5.4-1c1.7-0.7,3.3-1.6,4.7-2.9c1.5-1.3,2.8-2.9,3.7-4.7c1.1-2,2-4.2,2.5-6.5
		c0.6-2.7,0.9-5.4,0.9-8.2c0-3-0.4-6.1-1.2-9C450.9,205.3,449.7,202.9,448.2,200.8z M446.9,224.2c-0.5,2-1.2,4-2.3,5.8
		c-0.9,1.6-2.2,2.9-3.7,3.9c-2.8,1.7-6.3,1.9-9.2,0.5c-1.3-0.6-2.4-1.5-3.3-2.6c-1-1.2-1.8-2.5-2.4-3.9c-0.7-1.6-1.2-3.2-1.5-4.9
		c-0.3-1.8-0.5-3.7-0.5-5.5c0-1.9,0.2-3.7,0.5-5.6c0.3-1.7,0.8-3.4,1.4-5c0.6-1.5,1.4-2.8,2.4-4c0.9-1.1,2.1-2,3.4-2.7s2.8-1,4.3-1
		s3,0.3,4.3,1s2.4,1.6,3.3,2.8c1,1.2,1.8,2.6,2.4,4.1c0.7,1.6,1.1,3.2,1.4,4.9C447.9,215.9,447.8,220.1,446.9,224.2L446.9,224.2z"/>
	<path class="st2" d="M477.2,290.9c-1,2.9-2,5.7-2.8,8.4c-0.8,2.7-1.6,5.4-2.2,7.9h-0.1c-0.6-2.6-1.3-5.2-2.2-7.9s-1.7-5.6-2.6-8.5
		l-6.9-21.7h-6.2l14.5,44h6.3l15.7-44h-6.1L477.2,290.9z"/>
	<polygon class="st2" points="622.8,274 636.2,274 636.2,313.1 641.9,313.1 641.9,274 655.4,274 655.4,269.1 622.8,269.1 	"/>
	<path class="st2" d="M689.4,269.1l-6.3,12.1c-0.9,1.7-1.7,3.2-2.4,4.7c-0.7,1.5-1.4,2.9-2,4.4h-0.1c-0.5-1-0.9-2-1.4-3l-1.4-2.9
		c-0.5-1-1-2-1.6-3.1l-6.2-12.1h-6.5l14,25.3v18.7h5.7v-18.8l14.7-25.2h-6.5V269.1z"/>
	<path class="st2" d="M559.8,301.1c-0.4-2-1.2-4-2.3-5.7c-1-1.5-2.4-2.6-4.1-3.2V292c1.5-0.5,2.9-1.3,4.2-2.3c1.2-1,2.2-2.3,2.9-3.7
		c0.8-1.6,1.1-3.3,1.1-5.1c0-1.6-0.3-3.3-0.9-4.8c-0.6-1.4-1.4-2.6-2.5-3.6c-1.5-1.3-3.2-2.2-5.1-2.7c-2.5-0.7-5.1-1-7.6-0.9
		c-1.3,0-2.6,0.1-3.9,0.1s-2.6,0.2-3.8,0.3s-2.3,0.3-3.2,0.5v43.4h5.7v-19.1h5.4c1.5,0,3,0.3,4.3,1c1.2,0.6,2.2,1.6,2.9,2.7
		c0.8,1.5,1.4,3.2,1.7,4.9c0.6,2.8,1.1,5,1.6,6.8c0.3,1.3,0.7,2.5,1.3,3.7h5.9c-0.6-1.4-1.1-2.9-1.5-4.4
		C561.2,306.7,560.5,304.1,559.8,301.1z M551.3,288.7c-1.7,0.7-3.5,1.1-5.3,1h-5.8v-16.1c0.7-0.2,1.4-0.3,2.2-0.3
		c1-0.1,2.1-0.1,3.5-0.1c1.8,0,3.6,0.3,5.3,0.9c1.4,0.5,2.6,1.4,3.5,2.7c2.5,3.7,1.6,8.7-2.1,11.3
		C552.2,288.3,551.7,288.5,551.3,288.7L551.3,288.7z"/>
	<path class="st2" d="M592.5,291.4c-1.9-1.3-4-2.4-6.2-3.2c-1.7-0.6-3.4-1.4-5-2.3c-1.1-0.7-2.1-1.6-2.9-2.7
		c-0.6-1.1-0.9-2.3-0.9-3.5c0-0.8,0.2-1.6,0.4-2.3c0.3-0.8,0.8-1.5,1.4-2.2c0.7-0.7,1.6-1.2,2.6-1.6c1.2-0.4,2.5-0.6,3.8-0.6
		c1.2,0,2.4,0.1,3.6,0.3c1,0.2,1.9,0.5,2.8,0.8c0.6,0.3,1.3,0.6,1.9,0.9l1.6-4.6c-0.7-0.4-1.5-0.8-2.4-1.1c-1.1-0.4-2.1-0.6-3.2-0.8
		c-1.3-0.2-2.7-0.3-4.1-0.3c-2,0-4,0.3-5.8,0.9c-1.6,0.5-3.2,1.4-4.5,2.5c-1.2,1-2.2,2.3-2.9,3.8s-1,3.1-1,4.7
		c0,1.9,0.5,3.8,1.4,5.4c1,1.6,2.4,3,4,4.1c1.9,1.3,4,2.3,6.2,3c1.7,0.6,3.3,1.4,4.8,2.3c1.1,0.7,2,1.7,2.7,2.8
		c0.6,1.1,0.9,2.3,0.8,3.6c0,1.4-0.4,2.7-1.1,3.9c-0.8,1.2-1.9,2.1-3.1,2.6c-1.6,0.7-3.3,1-5,1c-1.9,0-3.8-0.3-5.6-0.8
		c-1.6-0.5-3.1-1.2-4.5-2l-1.5,4.8c0.9,0.6,2,1.1,3,1.4c1.3,0.5,2.6,0.8,3.9,1c1.4,0.3,2.9,0.4,4.3,0.4c2.3,0,4.6-0.3,6.8-1
		c1.8-0.6,3.4-1.5,4.8-2.8c1.2-1.1,2.2-2.5,2.8-4.1c0.6-1.5,0.9-3.2,0.9-4.8C597.7,297.2,595.8,293.5,592.5,291.4L592.5,291.4z"/>
	<polygon class="st2" points="504.6,292.5 521.7,292.5 521.7,287.8 504.6,287.8 504.6,273.9 522.7,273.9 522.7,269.1 498.9,269.1 
		498.9,313.1 523.7,313.1 523.7,308.4 504.6,308.4 	"/>
	<path class="st2" d="M421.3,287.5c0,2.3,0,4.4,0.1,6.4c0,2,0.1,4,0.2,5.9s0.2,3.8,0.4,5.7l-0.2,0.1c-1-2.2-2.2-4.5-3.5-6.9
		c-1.3-2.3-2.8-4.8-4.4-7.4l-14-22.3h-6.3v44h5.4v-18.8c0-2.4,0-4.7,0-6.7c0-2.1,0-4-0.1-5.9s-0.1-3.7-0.2-5.5l0.2-0.1
		c1.1,2.4,2.3,4.8,3.7,7.3s2.9,4.9,4.4,7.4l14,22.3h5.7v-44h-5.4L421.3,287.5z"/>
	<rect x="440" y="269.1" class="st2" width="5.7" height="44"/>
	<rect x="608.7" y="269.1" class="st2" width="5.7" height="44"/>
	<path class="st0" d="M338,163.2h24.5v-4.5h-18.8v-37.2H338V163.2L338,163.2z M338.1,237.5h5.7v-16.7c0.7,0.2,1.4,0.3,2.2,0.3
		c0.8,0.1,1.6,0.1,2.4,0.1c1.8,0,3.5-0.2,5.3-0.5c1.6-0.3,3.1-0.8,4.6-1.5c1.3-0.6,2.5-1.5,3.6-2.5c1.1-1.1,2-2.4,2.5-3.9
		c0.6-1.6,0.9-3.3,0.9-5s-0.3-3.4-1-5c-0.7-1.4-1.6-2.7-2.8-3.7c-1.5-1.2-3.2-2.1-5-2.6c-2.4-0.6-4.8-0.9-7.3-0.9
		c-2.3,0-4.3,0.1-6.1,0.2c-1.8,0.2-3.4,0.3-4.8,0.6L338.1,237.5L338.1,237.5z M343.8,200.2c0.7-0.2,1.4-0.3,2.1-0.3
		c0.9-0.1,2-0.1,3.2-0.1c1.8,0,3.7,0.3,5.4,0.9c1.4,0.5,2.7,1.5,3.6,2.7c0.9,1.4,1.4,3,1.4,4.6c0,1.7-0.4,3.4-1.3,4.8
		c-0.9,1.4-2.3,2.4-3.8,3c-1.9,0.7-3.9,1.1-5.9,1c-0.9,0-1.8,0-2.6-0.1c-0.7-0.1-1.4-0.2-2.1-0.3L343.8,200.2L343.8,200.2z
		 M338,270.2v24.5c-0.1,2.8,0.4,5.6,1.2,8.3c0.7,2.1,1.8,4,3.3,5.5c1.4,1.4,3.1,2.5,5,3.1c2,0.7,4.1,1,6.3,1c2.2,0,4.5-0.3,6.6-1
		c2-0.7,3.8-1.7,5.3-3.2c1.6-1.6,2.8-3.5,3.5-5.6c0.9-2.6,1.3-5.4,1.3-8.2v-24.4h-5.7v24.7c0.1,2.6-0.4,5.1-1.3,7.5
		c-0.8,1.8-2.1,3.3-3.7,4.3c-1.7,1-3.7,1.5-5.6,1.4c-1.8,0.1-3.7-0.4-5.3-1.4c-1.6-1-2.9-2.5-3.6-4.3c-1-2.4-1.4-5-1.4-7.5v-24.7
		H338z"/>
	<rect x="56.7" y="96.5" class="st5" width="644.4" height="6.2"/>
	<path class="st2" d="M701.9,103.5H55.8v-7.9h646.1L701.9,103.5L701.9,103.5z M57.5,101.8h642.6v-4.5H57.5V101.8z"/>
	<rect x="56.7" y="339.1" class="st5" width="644.4" height="6.2"/>
	<path class="st2" d="M701.9,346.1H55.8v-7.9h646.1L701.9,346.1L701.9,346.1z M57.5,344.4h642.6V340H57.5V344.4z"/>
</g>
</svg>
